<svg width="239" height="86" viewBox="0 0 239 86" fill="none" xmlns="http://www.w3.org/2000/svg">
<g clip-path="url(#clip0_3041_246)">
<path fill-rule="evenodd" clip-rule="evenodd" d="M52.3743 39.3155L52.5357 42.1609L49.5192 40.9193L52.3743 39.3155ZM59.7469 24.2577C59.7469 24.2577 64.0938 30.2013 52.8376 26.641C52.8376 26.641 55.2949 24.0043 59.7469 24.2577ZM53.8518 33.9317C57.4461 38.1158 56.8608 45.0881 56.8608 45.0881C55.9138 43.6097 53.3775 42.4945 53.3775 42.4945C54.4918 37.5299 53.8518 33.9317 53.8518 33.9317ZM62.1538 39.3558L58.0591 44.8787L57.8219 39.174L62.1538 39.3558ZM61.8089 41.6332L62.8047 49.3911L58.3729 45.8695L61.8089 41.6332ZM67.8093 41.2249C67.3636 47.5835 62.9611 51.9352 62.9611 51.9352C64.6893 45.8257 63.4068 39.5513 63.4068 39.5513L67.8093 41.2249ZM34.6257 39.3147L34.4651 42.1601L37.4817 40.9185L34.6257 39.3147ZM27.2531 24.2569C27.2531 24.2569 22.9062 30.2006 34.1625 26.6402C34.1625 26.6402 31.7051 24.0034 27.2531 24.2569ZM33.1491 33.931C29.5548 38.1148 30.1401 45.0874 30.1401 45.0874C31.0871 43.6091 33.6225 42.4934 33.6225 42.4934C32.5082 37.529 33.1491 33.931 33.1491 33.931ZM24.8462 39.355L28.9417 44.8778L29.1788 39.1733L24.8462 39.355ZM25.1911 41.6323L24.1944 49.3902L28.6263 45.8686L25.1911 41.6323ZM19.1907 41.224C19.6364 47.5827 24.0389 51.9344 24.0389 51.9344C22.3115 45.8248 23.5932 39.5503 23.5932 39.5503L19.1907 41.224ZM43.5005 19.7906C43.5005 19.7906 56.2316 5.51001 65.3697 15.663C71.4372 3.58632 76.9008 27.1975 78.8553 28.3257C69.9788 26.1804 67.9927 8.64177 51.4955 20.1258C67.7908 12.2004 68.1474 26.8086 71.8897 30.4455C71.8897 30.4455 67.3618 28.2002 62.459 29.1767C62.459 29.1767 63.6574 25.8857 61.512 23.3477C61.512 23.3477 64.4934 23.3198 65.886 25.2999C63.0838 9.62339 49.3553 32.4997 46.4943 22.7617C46.4943 22.7617 45.6306 25.1602 46.327 26.8338C46.327 26.8338 44.1564 24.9927 43.5005 20.4465C42.8445 24.9927 40.673 26.8338 40.673 26.8338C41.3703 25.1602 40.5057 22.7617 40.5057 22.7617C37.6447 32.4997 23.9171 9.62339 21.1149 25.2999C22.5084 23.3198 25.4895 23.3477 25.4895 23.3477C23.3442 25.8857 24.5425 29.1767 24.5425 29.1767C19.6391 28.201 15.112 30.4455 15.112 30.4455C18.8553 26.8086 19.21 12.2004 35.5062 20.1258C19.0082 8.64177 17.022 26.1804 8.1464 28.3257C10.1008 27.1968 15.5628 3.58632 21.632 15.663C30.7707 5.51001 43.5005 19.7906 43.5005 19.7906ZM52.4425 11.59C52.4425 11.59 47.2629 10.9207 43.5005 14.7697C39.738 10.9207 34.5584 11.59 34.5584 11.59C37.7483 8.33947 49.2526 8.33947 52.4425 11.59ZM82.5639 44.051C86.7597 38.2934 83.1299 35.1146 81.0476 33.8838C83.9549 33.8282 86.2153 32.2884 87 29.4958C77.5266 28.6868 80.6971 0.30373 64.6532 10.2732C63.5396 5.85596 56.4135 8.13408 55.315 8.51379C49.0658 3.82874 37.9306 3.82874 31.6823 8.51379C30.585 8.13408 23.4586 5.85596 22.3444 10.2732C6.30231 0.30554 9.47266 28.6885 0 29.4975C0.784708 32.2901 3.04512 33.8298 5.95151 33.8854C3.87095 35.1162 0.2405 38.2951 4.43517 44.0528C-20.0628 93.1079 107.063 93.1079 82.5639 44.0528V44.051ZM79.2866 46.9993C79.2866 46.9993 82.241 59.6063 70.651 67.6387C70.651 67.6387 73.0468 60.4432 69.3684 54.976C69.3684 54.976 71.5415 65.0163 58.5023 74.6119C58.5023 74.6119 62.8492 70.4833 62.4027 63.7898C59.128 80.4561 27.8704 80.4561 24.5956 63.7898C24.1499 70.4833 28.4959 74.6119 28.4959 74.6119C15.456 65.0163 17.6299 54.976 17.6299 54.976C13.9523 60.4432 16.3483 67.6387 16.3483 67.6387C4.75815 59.6055 7.7125 46.9993 7.7125 46.9993C9.66277 50.6252 12.8944 51.5176 12.8944 51.5176C-1.22447 33.9544 14.0744 32.8709 31.9516 31.5745C29.1099 30.1516 26.7418 30.4876 26.7418 30.4876C30.3773 28.7357 36.5717 26.2429 39.8641 29.5389C39.8641 29.5389 36.2412 29.6499 35.4617 33.1083C35.5693 33.2068 45.6861 40.0816 41.313 40.0816L39.6134 39.1892L38.3596 40.1649C38.3596 40.1649 36.5758 38.7699 34.292 37.822C34.292 37.822 33.6789 33.722 34.5149 31.2672C34.5149 31.2672 31.8396 32.3271 30.3351 36.7899C30.3351 36.7899 24.0945 34.335 15.3458 37.7933C15.3458 37.7933 12.2814 48.3361 25.7663 58.043C25.9823 38.7471 61.0168 38.7471 61.2337 58.043C74.7186 48.337 71.6534 37.7933 71.6534 37.7933C62.9047 34.335 56.664 36.7899 56.664 36.7899C55.1596 32.3271 52.4843 31.2672 52.4843 31.2672C53.3202 33.722 52.7074 37.822 52.7074 37.822C50.4223 38.7699 48.6395 40.1649 48.6395 40.1649L47.3857 39.1892L45.6861 40.0816C41.313 40.0816 51.4299 33.2068 51.5367 33.1083C50.7562 29.6499 47.1343 29.5389 47.1343 29.5389C50.4273 26.2429 56.6218 28.7357 60.2576 30.4876C60.2576 30.4876 57.8893 30.1524 55.0477 31.5745C72.9248 32.8709 88.224 33.9544 74.1056 51.5176C74.1056 51.5176 77.3364 50.6252 79.2866 46.9993Z" fill="white"/>
</g>
<path d="M110.609 37.13V37.18H115.231C116.87 37.18 118.076 36.8696 118.85 36.2486C119.634 35.6276 120.026 34.7623 120.026 33.6527C120.026 32.8485 119.838 32.1562 119.461 31.576C119.084 30.9856 118.55 30.5326 117.858 30.217C117.165 29.8912 116.336 29.7283 115.369 29.7283H110.609V29.7783M110.609 37.13H115.231C116.866 37.13 118.058 36.8201 118.819 36.2096L118.819 36.2094C119.59 35.599 119.976 34.7489 119.976 33.6527C119.976 32.8565 119.79 32.1741 119.419 31.6032L119.419 31.6029C119.048 31.0213 118.521 30.5744 117.837 30.2625L117.836 30.2622C117.152 29.9403 116.33 29.7783 115.369 29.7783H110.609M110.609 37.13H110.559V29.7783H110.609M110.609 37.13V29.7783M164.679 43.3227V43.2727V12V11.95H164.729H177.647C179.994 11.95 182.023 12.3735 183.731 13.2225C185.45 14.0613 186.775 15.2691 187.707 16.8455C187.707 16.8456 187.707 16.8456 187.707 16.8457L187.664 16.8711C188.59 18.4286 189.053 20.2763 189.053 22.4141C189.053 24.5824 188.58 26.425 187.633 27.9418L164.679 43.3227ZM164.679 43.3227H164.729H172.287H172.337V43.2727V32.6185M164.679 43.3227L176.129 32.6185M172.287 32.6185V43.2227V43.2727H172.237H164.779H164.729V43.2227V12.05V12H164.779H177.647C179.988 12 182.009 12.4225 183.709 13.2674L172.287 32.6185ZM172.287 32.6185H172.337M172.287 32.6185L172.337 32.5685M172.337 32.6185V32.5685M172.337 32.6185H176.129M172.337 32.5685H176.102H172.337ZM176.129 32.6185L181.832 43.2963L181.847 43.3227H181.877H190.122H190.207L190.166 43.2488L183.709 31.3984C185.416 30.6021 186.739 29.4588 187.676 27.9684L176.129 32.6185ZM102.95 43.2727V43.3227H103H117.033C119.349 43.3227 121.321 42.9452 122.948 42.1881L122.949 42.188C124.574 41.4211 125.819 40.377 126.68 39.055L126.68 39.0548C127.54 37.7228 127.97 36.2117 127.97 34.5231C127.97 33.0092 127.643 31.6971 126.986 30.5887C126.331 29.4718 125.459 28.6002 124.372 27.9748C123.31 27.3576 122.152 27.0152 120.9 26.9475V26.73C122.04 26.4831 123.046 26.0559 123.918 25.448C124.8 24.8328 125.492 24.0583 125.995 23.1249L125.995 23.1247C126.498 22.1801 126.749 21.108 126.749 19.9098C126.749 18.3331 126.344 16.9438 125.534 15.7438C124.734 14.5431 123.534 13.6111 121.939 12.9464C120.353 12.2814 118.386 11.95 116.04 11.95H103H102.95V12V43.2727ZM118.397 23.2251L118.397 23.2256C118.046 23.7362 117.555 24.1275 116.922 24.399C116.288 24.6708 115.562 24.8072 114.743 24.8072H110.609V18.0511H114.865C116.119 18.0511 117.11 18.3495 117.841 18.9409C118.572 19.531 118.938 20.3406 118.938 21.3757C118.938 22.1 118.757 22.7156 118.397 23.2251ZM138.319 43.3227H138.356L138.367 43.2877L140.413 36.7567H151.14L153.19 43.2877L153.201 43.3227H153.238H161.362H161.431L161.409 43.2567L150.857 11.984L150.846 11.95H150.81H140.747H140.711L140.7 11.984L130.148 43.2567L130.126 43.3227H130.196H138.319ZM145.856 19.9293L149.306 30.9152H142.243L145.686 19.9293H145.856ZM176.013 26.5633H172.337V18.1427H176.013C177.138 18.1427 178.083 18.305 178.849 18.6274L178.85 18.6276C179.615 18.9397 180.191 19.4116 180.582 20.043L180.582 20.0433C180.973 20.6644 181.17 21.4536 181.17 22.4141C181.17 23.3745 180.973 24.1585 180.582 24.7692C180.192 25.3699 179.616 25.8217 178.85 26.1238C178.094 26.4161 177.149 26.5633 176.013 26.5633ZM193.149 43.2727V43.3227H193.199H200.758H200.808V43.2727V34.8153L203.777 31.0667L211.527 43.2995L211.541 43.3227H211.569H220.609H220.701L220.651 43.2454L209.386 25.9596L220.449 12.0311L220.514 11.95H220.41H211.508H211.483L211.468 11.9692L201.146 25.1737H200.808V12V11.95H200.758H193.199H193.149V12V43.2727Z" fill="white" stroke="white" stroke-width="0.1"/>
<path d="M109.847 63.0739C109.782 62.4261 109.496 61.911 108.989 61.5284C108.481 61.1458 107.843 60.9545 107.074 60.9545C106.532 60.9545 106.055 61.0473 105.642 61.233C105.233 61.4186 104.911 61.6761 104.676 62.0057C104.445 62.3314 104.33 62.7027 104.33 63.1193C104.33 63.4261 104.396 63.6951 104.528 63.9261C104.661 64.1572 104.839 64.3561 105.062 64.5227C105.29 64.6856 105.54 64.8258 105.812 64.9432C106.089 65.0606 106.367 65.1591 106.648 65.2386L107.875 65.5909C108.246 65.6932 108.617 65.8239 108.989 65.983C109.36 66.142 109.699 66.3428 110.006 66.5852C110.316 66.8239 110.564 67.1174 110.75 67.4659C110.939 67.8106 111.034 68.2254 111.034 68.7102C111.034 69.3314 110.873 69.8902 110.551 70.3864C110.229 70.8826 109.767 71.2765 109.165 71.5682C108.563 71.8561 107.841 72 107 72C106.208 72 105.521 71.8693 104.938 71.608C104.354 71.3428 103.896 70.9773 103.562 70.5114C103.229 70.0455 103.042 69.5057 103 68.892H104.091C104.129 69.3504 104.28 69.7386 104.545 70.0568C104.811 70.375 105.155 70.6174 105.58 70.7841C106.004 70.947 106.477 71.0284 107 71.0284C107.58 71.0284 108.095 70.9318 108.545 70.7386C109 70.5417 109.356 70.2689 109.614 69.9205C109.875 69.5682 110.006 69.1591 110.006 68.6932C110.006 68.2992 109.903 67.9697 109.699 67.7045C109.494 67.4356 109.208 67.2102 108.841 67.0284C108.477 66.8466 108.055 66.6856 107.574 66.5455L106.182 66.1364C105.269 65.8636 104.561 65.4867 104.057 65.0057C103.553 64.5246 103.301 63.911 103.301 63.1648C103.301 62.5398 103.468 61.9905 103.801 61.517C104.138 61.0398 104.593 60.6686 105.165 60.4034C105.741 60.1345 106.386 60 107.102 60C107.826 60 108.466 60.1326 109.023 60.3977C109.58 60.6629 110.021 61.0284 110.347 61.4943C110.676 61.9564 110.852 62.483 110.875 63.0739H109.847Z" fill="white" fill-opacity="0.8"/>
<path d="M139.614 71.8011L136.426 60.1648H137.506L140.142 70.1705H140.233L142.869 60.1648H144.097L146.733 70.1705H146.824L149.46 60.1648H150.545L147.358 71.8011H146.222L143.523 61.9318H143.449L140.75 71.8011H139.614Z" fill="white" fill-opacity="0.8"/>
<path d="M175.577 71.8011H174.463L178.696 60.1648H179.832L184.065 71.8011H182.952L179.304 61.5455H179.224L175.577 71.8011ZM176.378 67.3409H182.151V68.2955H176.378V67.3409Z" fill="white" fill-opacity="0.8"/>
<path d="M210.06 71.8011V60.1648H213.815C214.641 60.1648 215.33 60.3239 215.884 60.642C216.44 60.9564 216.859 61.3845 217.139 61.9261C217.423 62.4678 217.565 63.0777 217.565 63.7557C217.565 64.4337 217.425 65.0455 217.145 65.5909C216.865 66.1326 216.448 66.5625 215.895 66.8807C215.342 67.1951 214.654 67.3523 213.832 67.3523H210.878V66.3977H213.804C214.414 66.3977 214.92 66.2841 215.321 66.0568C215.723 65.8258 216.022 65.5114 216.219 65.1136C216.42 64.7159 216.52 64.2633 216.52 63.7557C216.52 63.2481 216.42 62.7955 216.219 62.3977C216.022 62 215.721 61.6875 215.315 61.4602C214.914 61.233 214.404 61.1193 213.787 61.1193H211.122V71.8011H210.06Z" fill="white" fill-opacity="0.8"/>
<defs>
<clipPath id="clip0_3041_246">
<rect width="87" height="76" fill="white" transform="translate(0 5)"/>
</clipPath>
</defs>
</svg>
