<svg width="731" height="469" viewBox="0 0 731 469" fill="none" xmlns="http://www.w3.org/2000/svg">
<g filter="url(#filter0_ddd_48_337)">
<path d="M357.777 105.94C365.697 107.62 372.057 110.74 376.857 115.3C381.777 119.86 384.237 126.64 384.237 135.64C384.237 159.88 367.497 172 334.017 172H297.117V47.2598H329.697C345.657 47.2598 357.957 49.8998 366.597 55.1798C375.237 60.3398 379.557 68.3198 379.557 79.1198C379.557 86.3198 377.517 92.1998 373.437 96.7598C369.357 101.2 364.137 104.26 357.777 105.94ZM325.917 67.5998V97.2998H333.837C344.877 97.2998 350.397 92.1998 350.397 81.9998C350.397 77.0798 348.957 73.4798 346.077 71.1998C343.197 68.7998 338.637 67.5998 332.397 67.5998H325.917ZM334.197 151.12C340.917 151.12 346.017 149.86 349.497 147.34C352.977 144.82 354.717 140.44 354.717 134.2C354.717 122.44 348.357 116.56 335.637 116.56H325.917V151.12H334.197Z" fill="#030D14"/>
<path d="M456.905 172L451.325 144.82H419.645L414.065 172H384.905L418.565 47.2598H453.125L486.605 172H456.905ZM423.965 124.12H447.005L435.485 68.3198L423.965 124.12Z" fill="#030D14"/>
<path d="M532.68 124.12H523.32V172H494.52V47.2598H531.06C547.38 47.2598 559.56 50.4398 567.6 56.7998C575.64 63.0398 579.66 72.4598 579.66 85.0598C579.66 101.02 572.64 112.24 558.6 118.72L586.86 172H555.36L532.68 124.12ZM523.32 104.14H532.14C538.38 104.14 542.94 102.64 545.82 99.6398C548.7 96.5198 550.14 91.6598 550.14 85.0598C550.14 79.0598 548.58 74.6798 545.46 71.9198C542.34 69.0398 537.42 67.5998 530.7 67.5998H523.32V104.14Z" fill="#030D14"/>
<path d="M624.394 47.2598V172H595.594V47.2598H624.394ZM689.554 47.2598L654.634 103.24L692.434 172H660.214L625.294 105.4L660.214 47.2598H689.554Z" fill="#030D14"/>
<path d="M296.117 172V173H297.117H334.017C350.848 173 363.652 169.959 372.269 163.72C380.946 157.437 385.237 148.017 385.237 135.64C385.237 126.463 382.726 119.378 377.542 114.571C373.32 110.561 367.955 107.654 361.483 105.824C366.483 103.987 370.721 101.194 374.174 97.4364L374.174 97.4365L374.182 97.4266C378.455 92.6516 380.557 86.5198 380.557 79.1198C380.557 68.0008 376.079 59.6798 367.114 54.3237C358.251 48.9093 345.742 46.2598 329.697 46.2598H297.117H296.117V47.2598V172ZM345.437 71.968L345.447 71.976L345.456 71.9838C348.021 74.0144 349.397 77.2741 349.397 81.9998C349.397 86.9244 348.068 90.44 345.579 92.7403C343.074 95.0544 339.222 96.2998 333.837 96.2998H326.917V68.5998H332.397C338.547 68.5998 342.822 69.7892 345.437 71.968ZM455.926 172.201L456.09 173H456.905H486.605H487.909L487.571 171.741L454.091 47.0005L453.892 46.2598H453.125H418.565H417.799L417.6 46.9992L383.94 171.739L383.6 173H384.905H414.065H414.881L415.045 172.201L420.461 145.82H450.51L455.926 172.201ZM587.743 171.531L559.973 119.175C566.668 115.91 571.776 111.516 575.242 105.975C578.871 100.176 580.66 93.1885 580.66 85.0598C580.66 72.2336 576.556 62.4863 568.216 56.012C559.921 49.4532 547.477 46.2598 531.06 46.2598H494.52H493.52V47.2598V172V173H494.52H523.32H524.32V172V125.12H532.047L554.456 172.428L554.727 173H555.36H586.86H588.522L587.743 171.531ZM544.781 72.6546L544.789 72.6617L544.797 72.6688C547.622 75.1675 549.14 79.2171 549.14 85.0598C549.14 91.537 547.723 96.0978 545.091 98.9542C542.476 101.673 538.238 103.14 532.14 103.14H524.32V68.5998H530.7C537.308 68.5998 541.928 70.0208 544.781 72.6546ZM625.394 47.2598V46.2598H624.394H595.594H594.594V47.2598V172V173H595.594H624.394H625.394V172V107.744L659.328 172.464L659.609 173H660.214H692.434H694.125L693.31 171.518L655.792 103.272L690.402 47.789L691.356 46.2598H689.554H660.214H659.648L659.356 46.7449L625.394 103.291V47.2598ZM348.911 146.53C345.673 148.874 340.817 150.12 334.197 150.12H326.917V117.56H335.637C341.862 117.56 346.344 119 349.268 121.704C352.178 124.394 353.717 128.495 353.717 134.2C353.717 140.272 352.028 144.273 348.911 146.53ZM435.485 73.2656L445.778 123.12H425.193L435.485 73.2656Z" stroke="white" stroke-width="2"/>
</g>
<g filter="url(#filter1_dddd_48_337)">
<path fill-rule="evenodd" clip-rule="evenodd" d="M161.138 101.896L161.618 110.262L152.638 106.611L161.14 101.896H161.138ZM183.086 57.6221C183.086 57.6221 196.027 75.0982 162.517 64.63C162.517 64.63 169.832 56.8773 183.086 57.6221ZM165.536 86.0662C176.237 98.3686 174.494 118.869 174.494 118.869C171.675 114.523 164.124 111.243 164.124 111.243C167.442 96.6456 165.536 86.0662 165.536 86.0662ZM190.251 102.015L178.062 118.253L177.356 101.48L190.251 102.012V102.015ZM189.225 108.711L192.189 131.521L178.995 121.166L189.222 108.711H189.225ZM207.088 107.51C205.761 126.206 192.655 139.001 192.655 139.001C197.799 121.038 193.982 102.589 193.982 102.589L207.085 107.51H207.088ZM108.3 101.894L107.822 110.26L116.802 106.609L108.3 101.894ZM86.3515 57.6201C86.3515 57.6201 73.4104 75.0956 106.921 64.6274C106.921 64.6274 99.6054 56.8747 86.3515 57.6201ZM103.903 86.0636C93.2036 98.366 94.9461 118.867 94.9461 118.867C97.7648 114.52 105.313 111.24 105.313 111.24C101.996 96.6435 103.903 86.0636 103.903 86.0636ZM79.1862 102.012L91.3785 118.25L92.0845 101.478L79.1862 102.01V102.012ZM80.2128 108.708L77.2458 131.518L90.4397 121.164L80.2128 108.708ZM62.3497 107.507C63.6765 126.204 76.7826 138.999 76.7826 138.999C71.6408 121.035 75.4558 102.587 75.4558 102.587L62.3497 107.507ZM134.72 44.4882C134.72 44.4882 172.621 2.49962 199.825 32.3519C217.888 -3.15638 234.153 66.2663 239.972 69.5831C213.547 63.2761 207.634 11.7077 158.521 45.4735C207.032 22.1708 208.094 65.1226 219.235 75.8159C219.235 75.8159 205.756 69.2145 191.16 72.0854C191.16 72.0854 194.727 62.4097 188.341 54.9466C188.341 54.9466 197.216 54.8651 201.362 60.6867C193.02 14.5939 152.15 81.8558 143.633 53.2237C143.633 53.2237 141.062 60.2761 143.134 65.197C143.134 65.197 136.673 59.7834 134.72 46.4168C132.767 59.7834 126.303 65.197 126.303 65.197C128.378 60.2761 125.805 53.2237 125.805 53.2237C117.287 81.8558 76.4197 14.5939 68.0779 60.6867C72.2261 54.8651 81.1016 54.9466 81.1016 54.9466C74.7148 62.4097 78.2823 72.0854 78.2823 72.0854C63.6843 69.2166 50.2075 75.8159 50.2075 75.8159C61.3513 65.1226 62.4076 22.1708 110.921 45.4735C61.8066 11.7077 55.8935 63.2761 29.4708 69.5831C35.2889 66.2638 51.5495 -3.15638 69.6173 32.3519C96.8238 2.49962 134.722 44.4882 134.722 44.4882H134.72ZM161.34 20.3765C161.34 20.3765 145.921 18.4085 134.72 29.7256C123.519 18.4085 108.1 20.3765 108.1 20.3765C117.596 10.8193 151.844 10.8193 161.34 20.3765ZM251.012 115.819C263.503 98.891 252.697 89.544 246.499 85.9252C255.154 85.7617 261.882 81.2345 264.219 73.024C236.016 70.6448 245.455 -12.8079 197.692 16.505C194.377 3.51669 173.162 10.2149 169.893 11.3314C151.288 -2.44381 118.139 -2.44381 99.5376 11.3314C96.2703 10.2149 75.0553 3.51669 71.7384 16.505C23.9806 -12.8028 33.4189 70.6499 5.21875 73.0291C7.55445 81.2391 14.2843 85.7668 22.9362 85.9298C16.7427 89.5491 5.93465 98.8956 18.4225 115.825C-54.5084 260.058 323.946 260.058 251.012 115.825V115.819ZM241.256 124.488C241.256 124.488 250.051 161.556 215.547 185.173C215.547 185.173 222.68 164.016 211.729 147.942C211.729 147.942 218.198 177.462 179.381 205.676C179.381 205.676 192.322 193.537 190.992 173.856C181.244 222.859 88.1891 222.859 78.44 173.856C77.1132 193.537 90.0517 205.676 90.0517 205.676C51.2314 177.462 57.7033 147.942 57.7033 147.942C46.7548 164.016 53.8878 185.173 53.8878 185.173C19.3839 161.553 28.1789 124.488 28.1789 124.488C33.9845 135.149 43.6056 137.773 43.6056 137.773C1.57343 86.1328 47.1183 82.9472 100.339 79.1352C91.8793 74.952 84.8294 75.9394 84.8294 75.9394C95.6521 70.7884 114.093 63.4591 123.895 73.1501C123.895 73.1501 113.109 73.4767 110.788 83.6455C111.109 83.9351 141.227 104.149 128.208 104.149L123.149 101.524L119.416 104.393C119.416 104.393 114.106 100.292 107.306 97.5048C107.306 97.5048 105.481 85.45 107.97 78.2319C107.97 78.2319 100.005 81.3483 95.5267 94.4699C95.5267 94.4699 76.9482 87.2519 50.9035 97.4207C50.9035 97.4207 41.7806 128.419 81.925 156.96C82.5684 100.225 186.867 100.225 187.512 156.96C227.657 128.421 218.531 97.4207 218.531 97.4207C192.487 87.2519 173.908 94.4699 173.908 94.4699C169.429 81.3483 161.465 78.2319 161.465 78.2319C163.954 85.45 162.129 97.5048 162.129 97.5048C155.326 100.292 150.02 104.393 150.02 104.393L146.287 101.524L141.227 104.149C128.208 104.149 158.326 83.9351 158.644 83.6455C156.321 73.4767 145.538 73.1501 145.538 73.1501C155.342 63.4591 173.783 70.7884 184.606 75.9394C184.606 75.9394 177.556 74.9546 169.096 79.1352C222.317 82.9472 267.861 86.1328 225.832 137.773C225.832 137.773 235.453 135.149 241.259 124.488H241.256Z" fill="#030D14"/>
<mask id="mask0_48_337" style="mask-type:luminance" maskUnits="userSpaceOnUse" x="5" y="1" width="260" height="223">
<path fill-rule="evenodd" clip-rule="evenodd" d="M161.138 101.896L161.618 110.262L152.638 106.611L161.14 101.896H161.138ZM183.086 57.6221C183.086 57.6221 196.027 75.0982 162.517 64.63C162.517 64.63 169.832 56.8773 183.086 57.6221ZM165.536 86.0662C176.237 98.3686 174.494 118.869 174.494 118.869C171.675 114.523 164.124 111.243 164.124 111.243C167.442 96.6456 165.536 86.0662 165.536 86.0662ZM190.251 102.015L178.062 118.253L177.356 101.48L190.251 102.012V102.015ZM189.225 108.711L192.189 131.521L178.995 121.166L189.222 108.711H189.225ZM207.088 107.51C205.761 126.206 192.655 139.001 192.655 139.001C197.799 121.038 193.982 102.589 193.982 102.589L207.085 107.51H207.088ZM108.3 101.894L107.822 110.26L116.802 106.609L108.3 101.894ZM86.3515 57.6201C86.3515 57.6201 73.4104 75.0956 106.921 64.6274C106.921 64.6274 99.6054 56.8747 86.3515 57.6201ZM103.903 86.0636C93.2036 98.366 94.9461 118.867 94.9461 118.867C97.7648 114.52 105.313 111.24 105.313 111.24C101.996 96.6435 103.903 86.0636 103.903 86.0636ZM79.1862 102.012L91.3785 118.25L92.0845 101.478L79.1862 102.01V102.012ZM80.2128 108.708L77.2458 131.518L90.4397 121.164L80.2128 108.708ZM62.3497 107.507C63.6765 126.204 76.7826 138.999 76.7826 138.999C71.6408 121.035 75.4558 102.587 75.4558 102.587L62.3497 107.507ZM134.72 44.4882C134.72 44.4882 172.621 2.49962 199.825 32.3519C217.888 -3.15638 234.153 66.2663 239.972 69.5831C213.547 63.2761 207.634 11.7077 158.521 45.4735C207.032 22.1708 208.094 65.1226 219.235 75.8159C219.235 75.8159 205.756 69.2145 191.16 72.0854C191.16 72.0854 194.727 62.4097 188.341 54.9466C188.341 54.9466 197.216 54.8651 201.362 60.6867C193.02 14.5939 152.15 81.8558 143.633 53.2237C143.633 53.2237 141.062 60.2761 143.134 65.197C143.134 65.197 136.673 59.7834 134.72 46.4168C132.767 59.7834 126.303 65.197 126.303 65.197C128.378 60.2761 125.805 53.2237 125.805 53.2237C117.287 81.8558 76.4197 14.5939 68.0779 60.6867C72.2261 54.8651 81.1016 54.9466 81.1016 54.9466C74.7148 62.4097 78.2823 72.0854 78.2823 72.0854C63.6843 69.2166 50.2075 75.8159 50.2075 75.8159C61.3513 65.1226 62.4076 22.1708 110.921 45.4735C61.8066 11.7077 55.8935 63.2761 29.4708 69.5831C35.2889 66.2638 51.5495 -3.15638 69.6173 32.3519C96.8238 2.49962 134.722 44.4882 134.722 44.4882H134.72ZM161.34 20.3765C161.34 20.3765 145.921 18.4085 134.72 29.7256C123.519 18.4085 108.1 20.3765 108.1 20.3765C117.596 10.8193 151.844 10.8193 161.34 20.3765ZM251.012 115.819C263.503 98.891 252.697 89.544 246.499 85.9252C255.154 85.7617 261.882 81.2345 264.219 73.024C236.016 70.6448 245.455 -12.8079 197.692 16.505C194.377 3.51669 173.162 10.2149 169.893 11.3314C151.288 -2.44381 118.139 -2.44381 99.5376 11.3314C96.2703 10.2149 75.0553 3.51669 71.7384 16.505C23.9806 -12.8028 33.4189 70.6499 5.21875 73.0291C7.55445 81.2391 14.2843 85.7668 22.9362 85.9298C16.7427 89.5491 5.93465 98.8956 18.4225 115.825C-54.5084 260.058 323.946 260.058 251.012 115.825V115.819ZM241.256 124.488C241.256 124.488 250.051 161.556 215.547 185.173C215.547 185.173 222.68 164.016 211.729 147.942C211.729 147.942 218.198 177.462 179.381 205.676C179.381 205.676 192.322 193.537 190.992 173.856C181.244 222.859 88.1891 222.859 78.44 173.856C77.1132 193.537 90.0517 205.676 90.0517 205.676C51.2314 177.462 57.7033 147.942 57.7033 147.942C46.7548 164.016 53.8878 185.173 53.8878 185.173C19.3839 161.553 28.1789 124.488 28.1789 124.488C33.9845 135.149 43.6056 137.773 43.6056 137.773C1.57343 86.1328 47.1183 82.9472 100.339 79.1352C91.8793 74.952 84.8294 75.9394 84.8294 75.9394C95.6521 70.7884 114.093 63.4591 123.895 73.1501C123.895 73.1501 113.109 73.4767 110.788 83.6455C111.109 83.9351 141.227 104.149 128.208 104.149L123.149 101.524L119.416 104.393C119.416 104.393 114.106 100.292 107.306 97.5048C107.306 97.5048 105.481 85.45 107.97 78.2319C107.97 78.2319 100.005 81.3483 95.5267 94.4699C95.5267 94.4699 76.9482 87.2519 50.9035 97.4207C50.9035 97.4207 41.7806 128.419 81.925 156.96C82.5684 100.225 186.867 100.225 187.512 156.96C227.657 128.421 218.531 97.4207 218.531 97.4207C192.487 87.2519 173.908 94.4699 173.908 94.4699C169.429 81.3483 161.465 78.2319 161.465 78.2319C163.954 85.45 162.129 97.5048 162.129 97.5048C155.326 100.292 150.02 104.393 150.02 104.393L146.287 101.524L141.227 104.149C128.208 104.149 158.326 83.9351 158.644 83.6455C156.321 73.4767 145.538 73.1501 145.538 73.1501C155.342 63.4591 173.783 70.7884 184.606 75.9394C184.606 75.9394 177.556 74.9546 169.096 79.1352C222.317 82.9472 267.861 86.1328 225.832 137.773C225.832 137.773 235.453 135.149 241.259 124.488H241.256Z" fill="white"/>
</mask>
<g mask="url(#mask0_48_337)">
<path fill-rule="evenodd" clip-rule="evenodd" d="M161.138 101.896L161.618 110.262L152.638 106.611L161.14 101.896H161.138ZM183.086 57.6221C183.086 57.6221 196.027 75.0982 162.517 64.63C162.517 64.63 169.832 56.8773 183.086 57.6221ZM165.536 86.0662C176.237 98.3686 174.494 118.869 174.494 118.869C171.675 114.523 164.124 111.243 164.124 111.243C167.442 96.6456 165.536 86.0662 165.536 86.0662ZM190.251 102.015L178.062 118.253L177.356 101.48L190.251 102.012V102.015ZM189.225 108.711L192.189 131.521L178.995 121.166L189.222 108.711H189.225ZM207.088 107.51C205.761 126.206 192.655 139.001 192.655 139.001C197.799 121.038 193.982 102.589 193.982 102.589L207.085 107.51H207.088ZM108.3 101.894L107.822 110.26L116.802 106.609L108.3 101.894ZM86.3515 57.6201C86.3515 57.6201 73.4104 75.0956 106.921 64.6274C106.921 64.6274 99.6054 56.8747 86.3515 57.6201ZM103.903 86.0636C93.2036 98.366 94.9461 118.867 94.9461 118.867C97.7648 114.52 105.313 111.24 105.313 111.24C101.996 96.6435 103.903 86.0636 103.903 86.0636ZM79.1862 102.012L91.3785 118.25L92.0845 101.478L79.1862 102.01V102.012ZM80.2128 108.708L77.2458 131.518L90.4397 121.164L80.2128 108.708ZM62.3497 107.507C63.6765 126.204 76.7826 138.999 76.7826 138.999C71.6408 121.035 75.4558 102.587 75.4558 102.587L62.3497 107.507ZM134.72 44.4882C134.72 44.4882 172.621 2.49962 199.825 32.3519C217.888 -3.15638 234.153 66.2663 239.972 69.5831C213.547 63.2761 207.634 11.7077 158.521 45.4735C207.032 22.1708 208.094 65.1226 219.235 75.8159C219.235 75.8159 205.756 69.2145 191.16 72.0854C191.16 72.0854 194.727 62.4097 188.341 54.9466C188.341 54.9466 197.216 54.8651 201.362 60.6867C193.02 14.5939 152.15 81.8558 143.633 53.2237C143.633 53.2237 141.062 60.2761 143.134 65.197C143.134 65.197 136.673 59.7834 134.72 46.4168C132.767 59.7834 126.303 65.197 126.303 65.197C128.378 60.2761 125.805 53.2237 125.805 53.2237C117.287 81.8558 76.4197 14.5939 68.0779 60.6867C72.2261 54.8651 81.1016 54.9466 81.1016 54.9466C74.7148 62.4097 78.2823 72.0854 78.2823 72.0854C63.6843 69.2166 50.2075 75.8159 50.2075 75.8159C61.3513 65.1226 62.4076 22.1708 110.921 45.4735C61.8066 11.7077 55.8935 63.2761 29.4708 69.5831C35.2889 66.2638 51.5495 -3.15638 69.6173 32.3519C96.8238 2.49962 134.722 44.4882 134.722 44.4882H134.72ZM161.34 20.3765C161.34 20.3765 145.921 18.4085 134.72 29.7256C123.519 18.4085 108.1 20.3765 108.1 20.3765C117.596 10.8193 151.844 10.8193 161.34 20.3765ZM251.012 115.819C263.503 98.891 252.697 89.5439 246.499 85.9252C255.154 85.7617 261.882 81.2345 264.219 73.024C236.016 70.6448 245.455 -12.8079 197.692 16.505C194.377 3.51669 173.162 10.2149 169.893 11.3314C151.288 -2.44381 118.139 -2.44381 99.5376 11.3314C96.2703 10.2149 75.0553 3.51669 71.7384 16.505C23.9806 -12.8028 33.4189 70.65 5.21875 73.0291C7.55445 81.2391 14.2843 85.7668 22.9362 85.9298C16.7427 89.5491 5.93465 98.8956 18.4225 115.825C-54.5084 260.058 323.946 260.058 251.012 115.825V115.819ZM241.256 124.488C241.256 124.488 250.051 161.556 215.547 185.173C215.547 185.173 222.68 164.016 211.729 147.942C211.729 147.942 218.198 177.462 179.381 205.676C179.381 205.676 192.322 193.537 190.992 173.856C181.244 222.859 88.1891 222.859 78.44 173.856C77.1132 193.537 90.0517 205.676 90.0517 205.676C51.2315 177.462 57.7033 147.942 57.7033 147.942C46.7548 164.016 53.8878 185.173 53.8878 185.173C19.3839 161.553 28.1789 124.488 28.1789 124.488C33.9845 135.149 43.6056 137.773 43.6056 137.773C1.57343 86.1328 47.1183 82.9472 100.339 79.1352C91.8793 74.952 84.8294 75.9394 84.8294 75.9394C95.6521 70.7884 114.093 63.4591 123.895 73.1501C123.895 73.1501 113.109 73.4767 110.788 83.6455C111.109 83.9351 141.227 104.149 128.208 104.149L123.149 101.524L119.416 104.393C119.416 104.393 114.106 100.292 107.306 97.5048C107.306 97.5048 105.481 85.45 107.97 78.2319C107.97 78.2319 100.005 81.3483 95.5267 94.4699C95.5267 94.4699 76.9482 87.2519 50.9035 97.4207C50.9035 97.4207 41.7806 128.419 81.925 156.96C82.5684 100.225 186.867 100.225 187.512 156.96C227.657 128.421 218.531 97.4207 218.531 97.4207C192.487 87.2519 173.908 94.4699 173.908 94.4699C169.429 81.3483 161.465 78.2319 161.465 78.2319C163.954 85.45 162.129 97.5048 162.129 97.5048C155.326 100.292 150.02 104.393 150.02 104.393L146.287 101.524L141.227 104.149C128.208 104.149 158.326 83.9351 158.644 83.6455C156.321 73.4767 145.538 73.1501 145.538 73.1501C155.342 63.4591 173.783 70.7884 184.606 75.9394C184.606 75.9394 177.556 74.9546 169.096 79.1352C222.317 82.9472 267.861 86.1328 225.832 137.773C225.832 137.773 235.453 135.149 241.259 124.488H241.256Z" stroke="url(#paint0_linear_48_337)" stroke-width="2"/>
</g>
</g>
<g filter="url(#filter2_dddd_48_337)">
<path d="M365.657 207.296C366.553 207.296 367.329 207.448 367.985 207.752C368.657 208.056 369.305 208.512 369.929 209.12L369.137 209.96C368.577 209.448 368.025 209.08 367.481 208.856C366.953 208.616 366.353 208.496 365.681 208.496C364.785 208.496 364.057 208.752 363.497 209.264C362.937 209.776 362.657 210.448 362.657 211.28C362.657 212.112 362.905 212.776 363.401 213.272C363.897 213.752 364.793 214.216 366.089 214.664C367.561 215.176 368.641 215.784 369.329 216.488C370.017 217.192 370.361 218.2 370.361 219.512C370.361 220.408 370.153 221.224 369.737 221.96C369.337 222.68 368.761 223.248 368.009 223.664C367.257 224.064 366.393 224.264 365.417 224.264C363.561 224.264 361.969 223.576 360.641 222.2L361.433 221.384C362.041 221.944 362.649 222.368 363.257 222.656C363.865 222.928 364.577 223.064 365.393 223.064C366.449 223.064 367.305 222.752 367.961 222.128C368.617 221.488 368.945 220.632 368.945 219.56C368.945 218.904 368.833 218.36 368.609 217.928C368.401 217.496 368.049 217.12 367.553 216.8C367.057 216.464 366.361 216.136 365.465 215.816C363.961 215.288 362.881 214.688 362.225 214.016C361.569 213.328 361.241 212.432 361.241 211.328C361.241 210.576 361.425 209.896 361.793 209.288C362.177 208.664 362.705 208.176 363.377 207.824C364.049 207.472 364.809 207.296 365.657 207.296Z" fill="#5A6974"/>
<path d="M460.23 207.56L457.014 224H455.238L452.094 209.12L448.926 224H447.198L443.982 207.56H445.35L448.134 222.704L451.302 207.56H452.886L456.126 222.704L458.91 207.56H460.23Z" fill="#5A6974"/>
<path d="M543.471 224L542.175 219.488H536.007L534.711 224H533.343L538.263 207.56H539.991L544.911 224H543.471ZM536.343 218.312H541.839L539.103 208.712L536.343 218.312Z" fill="#5A6974"/>
<path d="M622.83 207.56C626.75 207.56 628.71 209.2 628.71 212.48C628.71 214.224 628.19 215.512 627.15 216.344C626.126 217.16 624.678 217.568 622.806 217.568H621.054V224H619.662V207.56H622.83ZM622.806 216.416C624.278 216.416 625.382 216.12 626.118 215.528C626.87 214.936 627.246 213.928 627.246 212.504C627.246 211.16 626.886 210.192 626.166 209.6C625.446 209.008 624.342 208.712 622.854 208.712H621.054V216.416H622.806Z" fill="#5A6974"/>
</g>
<defs>
<filter id="filter0_ddd_48_337" x="260.117" y="38.2598" width="470.699" height="229.74" filterUnits="userSpaceOnUse" color-interpolation-filters="sRGB">
<feFlood flood-opacity="0" result="BackgroundImageFix"/>
<feColorMatrix in="SourceAlpha" type="matrix" values="0 0 0 0 0 0 0 0 0 0 0 0 0 0 0 0 0 0 127 0" result="hardAlpha"/>
<feOffset dy="7"/>
<feGaussianBlur stdDeviation="7"/>
<feColorMatrix type="matrix" values="0 0 0 0 0 0 0 0 0 0 0 0 0 0 0 0 0 0 0.03 0"/>
<feBlend mode="normal" in2="BackgroundImageFix" result="effect1_dropShadow_48_337"/>
<feColorMatrix in="SourceAlpha" type="matrix" values="0 0 0 0 0 0 0 0 0 0 0 0 0 0 0 0 0 0 127 0" result="hardAlpha"/>
<feOffset dy="26"/>
<feGaussianBlur stdDeviation="13"/>
<feColorMatrix type="matrix" values="0 0 0 0 0 0 0 0 0 0 0 0 0 0 0 0 0 0 0.03 0"/>
<feBlend mode="normal" in2="effect1_dropShadow_48_337" result="effect2_dropShadow_48_337"/>
<feColorMatrix in="SourceAlpha" type="matrix" values="0 0 0 0 0 0 0 0 0 0 0 0 0 0 0 0 0 0 127 0" result="hardAlpha"/>
<feOffset dy="59"/>
<feGaussianBlur stdDeviation="17.5"/>
<feColorMatrix type="matrix" values="0 0 0 0 0 0 0 0 0 0 0 0 0 0 0 0 0 0 0.02 0"/>
<feBlend mode="normal" in2="effect2_dropShadow_48_337" result="effect3_dropShadow_48_337"/>
<feBlend mode="normal" in="SourceGraphic" in2="effect3_dropShadow_48_337" result="shape"/>
</filter>
<filter id="filter1_dddd_48_337" x="0.21875" y="0" width="269" height="241" filterUnits="userSpaceOnUse" color-interpolation-filters="sRGB">
<feFlood flood-opacity="0" result="BackgroundImageFix"/>
<feColorMatrix in="SourceAlpha" type="matrix" values="0 0 0 0 0 0 0 0 0 0 0 0 0 0 0 0 0 0 127 0" result="hardAlpha"/>
<feOffset dy="1"/>
<feGaussianBlur stdDeviation="1"/>
<feColorMatrix type="matrix" values="0 0 0 0 0 0 0 0 0 0 0 0 0 0 0 0 0 0 0.08 0"/>
<feBlend mode="normal" in2="BackgroundImageFix" result="effect1_dropShadow_48_337"/>
<feColorMatrix in="SourceAlpha" type="matrix" values="0 0 0 0 0 0 0 0 0 0 0 0 0 0 0 0 0 0 127 0" result="hardAlpha"/>
<feOffset dy="3"/>
<feGaussianBlur stdDeviation="1.5"/>
<feColorMatrix type="matrix" values="0 0 0 0 0 0 0 0 0 0 0 0 0 0 0 0 0 0 0.07 0"/>
<feBlend mode="normal" in2="effect1_dropShadow_48_337" result="effect2_dropShadow_48_337"/>
<feColorMatrix in="SourceAlpha" type="matrix" values="0 0 0 0 0 0 0 0 0 0 0 0 0 0 0 0 0 0 127 0" result="hardAlpha"/>
<feOffset dy="7"/>
<feGaussianBlur stdDeviation="2"/>
<feColorMatrix type="matrix" values="0 0 0 0 0 0 0 0 0 0 0 0 0 0 0 0 0 0 0.04 0"/>
<feBlend mode="normal" in2="effect2_dropShadow_48_337" result="effect3_dropShadow_48_337"/>
<feColorMatrix in="SourceAlpha" type="matrix" values="0 0 0 0 0 0 0 0 0 0 0 0 0 0 0 0 0 0 127 0" result="hardAlpha"/>
<feOffset dy="12"/>
<feGaussianBlur stdDeviation="2.5"/>
<feColorMatrix type="matrix" values="0 0 0 0 0 0 0 0 0 0 0 0 0 0 0 0 0 0 0.01 0"/>
<feBlend mode="normal" in2="effect3_dropShadow_48_337" result="effect4_dropShadow_48_337"/>
<feBlend mode="normal" in="SourceGraphic" in2="effect4_dropShadow_48_337" result="shape"/>
</filter>
<filter id="filter2_dddd_48_337" x="290.641" y="194.296" width="408.07" height="273.968" filterUnits="userSpaceOnUse" color-interpolation-filters="sRGB">
<feFlood flood-opacity="0" result="BackgroundImageFix"/>
<feColorMatrix in="SourceAlpha" type="matrix" values="0 0 0 0 0 0 0 0 0 0 0 0 0 0 0 0 0 0 127 0" result="hardAlpha"/>
<feOffset dy="11"/>
<feGaussianBlur stdDeviation="12"/>
<feColorMatrix type="matrix" values="0 0 0 0 0 0 0 0 0 0 0 0 0 0 0 0 0 0 0.1 0"/>
<feBlend mode="normal" in2="BackgroundImageFix" result="effect1_dropShadow_48_337"/>
<feColorMatrix in="SourceAlpha" type="matrix" values="0 0 0 0 0 0 0 0 0 0 0 0 0 0 0 0 0 0 127 0" result="hardAlpha"/>
<feOffset dy="43"/>
<feGaussianBlur stdDeviation="21.5"/>
<feColorMatrix type="matrix" values="0 0 0 0 0 0 0 0 0 0 0 0 0 0 0 0 0 0 0.09 0"/>
<feBlend mode="normal" in2="effect1_dropShadow_48_337" result="effect2_dropShadow_48_337"/>
<feColorMatrix in="SourceAlpha" type="matrix" values="0 0 0 0 0 0 0 0 0 0 0 0 0 0 0 0 0 0 127 0" result="hardAlpha"/>
<feOffset dy="98"/>
<feGaussianBlur stdDeviation="29.5"/>
<feColorMatrix type="matrix" values="0 0 0 0 0 0 0 0 0 0 0 0 0 0 0 0 0 0 0.05 0"/>
<feBlend mode="normal" in2="effect2_dropShadow_48_337" result="effect3_dropShadow_48_337"/>
<feColorMatrix in="SourceAlpha" type="matrix" values="0 0 0 0 0 0 0 0 0 0 0 0 0 0 0 0 0 0 127 0" result="hardAlpha"/>
<feOffset dy="174"/>
<feGaussianBlur stdDeviation="35"/>
<feColorMatrix type="matrix" values="0 0 0 0 0 0 0 0 0 0 0 0 0 0 0 0 0 0 0.01 0"/>
<feBlend mode="normal" in2="effect3_dropShadow_48_337" result="effect4_dropShadow_48_337"/>
<feBlend mode="normal" in="SourceGraphic" in2="effect4_dropShadow_48_337" result="shape"/>
</filter>
<linearGradient id="paint0_linear_48_337" x1="134.719" y1="1" x2="134.719" y2="224" gradientUnits="userSpaceOnUse">
<stop stop-color="#FAFAFA"/>
<stop offset="1" stop-color="#949494"/>
</linearGradient>
</defs>
</svg>
