<svg width="757" height="338" viewBox="0 0 757 338" fill="none" xmlns="http://www.w3.org/2000/svg">
<g filter="url(#filter0_ddd_48_347)">
<path d="M383.56 110.94C391.48 112.62 397.84 115.74 402.64 120.3C407.56 124.86 410.02 131.64 410.02 140.64C410.02 164.88 393.28 177 359.8 177H322.9V52.2598H355.48C371.44 52.2598 383.74 54.8998 392.38 60.1798C401.02 65.3398 405.34 73.3198 405.34 84.1198C405.34 91.3198 403.3 97.1998 399.22 101.76C395.14 106.2 389.92 109.26 383.56 110.94ZM351.7 72.5998V102.3H359.62C370.66 102.3 376.18 97.1998 376.18 86.9998C376.18 82.0798 374.74 78.4798 371.86 76.1998C368.98 73.7998 364.42 72.5998 358.18 72.5998H351.7ZM359.98 156.12C366.7 156.12 371.8 154.86 375.28 152.34C378.76 149.82 380.5 145.44 380.5 139.2C380.5 127.44 374.14 121.56 361.42 121.56H351.7V156.12H359.98Z" fill="white"/>
<path d="M482.688 177L477.108 149.82H445.428L439.848 177H410.688L444.348 52.2598H478.908L512.388 177H482.688ZM449.748 129.12H472.788L461.268 73.3198L449.748 129.12Z" fill="white"/>
<path d="M558.463 129.12H549.103V177H520.303V52.2598H556.843C573.163 52.2598 585.343 55.4398 593.383 61.7998C601.423 68.0398 605.443 77.4598 605.443 90.0598C605.443 106.02 598.423 117.24 584.383 123.72L612.643 177H581.143L558.463 129.12ZM549.103 109.14H557.923C564.163 109.14 568.723 107.64 571.603 104.64C574.483 101.52 575.923 96.6598 575.923 90.0598C575.923 84.0598 574.363 79.6798 571.243 76.9198C568.123 74.0398 563.203 72.5998 556.483 72.5998H549.103V109.14Z" fill="white"/>
<path d="M650.177 52.2598V177H621.377V52.2598H650.177ZM715.337 52.2598L680.417 108.24L718.217 177H685.997L651.077 110.4L685.997 52.2598H715.337Z" fill="white"/>
<path d="M321.9 177V178H322.9H359.8C376.631 178 389.435 174.959 398.052 168.72C406.729 162.437 411.02 153.017 411.02 140.64C411.02 131.463 408.509 124.378 403.325 119.571C399.103 115.561 393.738 112.654 387.266 110.824C392.267 108.987 396.504 106.194 399.957 102.436L399.957 102.436L399.966 102.427C404.238 97.6516 406.34 91.5198 406.34 84.1198C406.34 73.0008 401.863 64.6798 392.897 59.3237C384.035 53.9093 371.525 51.2598 355.48 51.2598H322.9H321.9V52.2598V177ZM371.22 76.968L371.23 76.976L371.24 76.9838C373.805 79.0144 375.18 82.2741 375.18 86.9998C375.18 91.9244 373.852 95.44 371.362 97.7403C368.857 100.054 365.005 101.3 359.62 101.3H352.7V73.5998H358.18C364.33 73.5998 368.606 74.7892 371.22 76.968ZM481.709 177.201L481.873 178H482.688H512.388H513.692L513.354 176.741L479.874 52.0005L479.675 51.2598H478.908H444.348H443.582L443.383 51.9992L409.723 176.739L409.383 178H410.688H439.848H440.664L440.828 177.201L446.244 150.82H476.293L481.709 177.201ZM613.526 176.531L585.756 124.175C592.452 120.91 597.559 116.516 601.025 110.975C604.654 105.176 606.443 98.1885 606.443 90.0598C606.443 77.2336 602.339 67.4863 593.999 61.012C585.704 54.4532 573.261 51.2598 556.843 51.2598H520.303H519.303V52.2598V177V178H520.303H549.103H550.103V177V130.12H557.83L580.239 177.428L580.51 178H581.143H612.643H614.305L613.526 176.531ZM570.564 77.6546L570.572 77.6617L570.58 77.6688C573.405 80.1675 574.923 84.2171 574.923 90.0598C574.923 96.537 573.507 101.098 570.875 103.954C568.259 106.673 564.021 108.14 557.923 108.14H550.103V73.5998H556.483C563.091 73.5998 567.711 75.0208 570.564 77.6546ZM651.177 52.2598V51.2598H650.177H621.377H620.377V52.2598V177V178H621.377H650.177H651.177V177V112.744L685.111 177.464L685.392 178H685.997H718.217H719.908L719.093 176.518L681.576 108.272L716.185 52.789L717.139 51.2598H715.337H685.997H685.431L685.14 51.7449L651.177 108.291V52.2598ZM374.694 151.53C371.456 153.874 366.6 155.12 359.98 155.12H352.7V122.56H361.42C367.645 122.56 372.127 124 375.052 126.704C377.961 129.394 379.5 133.495 379.5 139.2C379.5 145.272 377.811 149.273 374.694 151.53ZM461.268 78.2656L471.561 128.12H450.976L461.268 78.2656Z" stroke="white" stroke-width="2"/>
</g>
<g filter="url(#filter1_dddd_48_347)">
<path fill-rule="evenodd" clip-rule="evenodd" d="M186.919 106.896L187.399 115.262L178.419 111.611L186.921 106.896H186.919ZM208.867 62.6221C208.867 62.6221 221.808 80.0982 188.298 69.63C188.298 69.63 195.613 61.8773 208.867 62.6221ZM191.317 91.0662C202.018 103.369 200.275 123.869 200.275 123.869C197.456 119.523 189.905 116.243 189.905 116.243C193.223 101.646 191.317 91.0662 191.317 91.0662ZM216.033 107.015L203.843 123.253L203.137 106.48L216.033 107.012V107.015ZM215.006 113.711L217.97 136.521L204.776 126.166L215.003 113.711H215.006ZM232.869 112.51C231.542 131.206 218.436 144.001 218.436 144.001C223.581 126.038 219.763 107.589 219.763 107.589L232.866 112.51H232.869ZM134.081 106.894L133.603 115.26L142.583 111.609L134.081 106.894ZM112.133 62.6201C112.133 62.6201 99.1917 80.0956 132.702 69.6274C132.702 69.6274 125.387 61.8747 112.133 62.6201ZM129.685 91.0636C118.985 103.366 120.727 123.867 120.727 123.867C123.546 119.52 131.095 116.24 131.095 116.24C127.777 101.644 129.685 91.0636 129.685 91.0636ZM104.967 107.012L117.16 123.25L117.866 106.478L104.967 107.01V107.012ZM105.994 113.708L103.027 136.518L116.221 126.164L105.994 113.708ZM88.1309 112.507C89.4578 131.204 102.564 143.999 102.564 143.999C97.422 126.035 101.237 107.587 101.237 107.587L88.1309 112.507ZM160.502 49.4882C160.502 49.4882 198.402 7.49962 225.606 37.3519C243.669 1.84362 259.935 71.2663 265.753 74.5831C239.328 68.2761 233.415 16.7077 184.302 50.4735C232.814 27.1708 233.875 70.1226 245.016 80.8159C245.016 80.8159 231.537 74.2145 216.941 77.0854C216.941 77.0854 220.509 67.4097 214.122 59.9466C214.122 59.9466 222.997 59.8651 227.143 65.6867C218.802 19.5939 177.931 86.8558 169.414 58.2237C169.414 58.2237 166.843 65.2761 168.915 70.197C168.915 70.197 162.454 64.7834 160.502 51.4168C158.549 64.7834 152.085 70.197 152.085 70.197C154.16 65.2761 151.586 58.2237 151.586 58.2237C143.069 86.8558 102.201 19.5939 93.8592 65.6867C98.0074 59.8651 106.883 59.9466 106.883 59.9466C100.496 67.4097 104.064 77.0854 104.064 77.0854C89.4656 74.2166 75.9887 80.8159 75.9887 80.8159C87.1325 70.1226 88.1889 27.1708 136.702 50.4735C87.5878 16.7077 81.6747 68.2761 55.252 74.5831C61.0701 71.2638 77.3307 1.84362 95.3986 37.3519C122.605 7.49962 160.504 49.4882 160.504 49.4882H160.502ZM187.122 25.3765C187.122 25.3765 171.702 23.4085 160.502 34.7256C149.3 23.4085 133.881 25.3765 133.881 25.3765C143.377 15.8193 177.625 15.8193 187.122 25.3765ZM276.794 120.819C289.285 103.891 278.479 94.5439 272.28 90.9252C280.935 90.7617 287.663 86.2345 290 78.024C261.798 75.6448 271.236 -7.80793 223.473 21.505C220.158 8.51669 198.943 15.2149 195.674 16.3314C177.07 2.55619 143.92 2.55619 125.319 16.3314C122.052 15.2149 100.837 8.51669 97.5197 21.505C49.7618 -7.8028 59.2002 75.65 31 78.0291C33.3357 86.2391 40.0655 90.7668 48.7175 90.9298C42.5239 94.5491 31.7159 103.896 44.2038 120.825C-28.7272 265.058 349.728 265.058 276.794 120.825V120.819ZM267.037 129.488C267.037 129.488 275.832 166.556 241.328 190.173C241.328 190.173 248.461 169.016 237.511 152.942C237.511 152.942 243.979 182.462 205.162 210.676C205.162 210.676 218.103 198.537 216.774 178.856C207.025 227.859 113.97 227.859 104.221 178.856C102.894 198.537 115.833 210.676 115.833 210.676C77.0127 182.462 83.4846 152.942 83.4846 152.942C72.5361 169.016 79.669 190.173 79.669 190.173C45.1651 166.553 53.9601 129.488 53.9601 129.488C59.7657 140.149 69.3868 142.773 69.3868 142.773C27.3547 91.1328 72.8995 87.9472 126.12 84.1352C117.661 79.952 110.611 80.9394 110.611 80.9394C121.433 75.7884 139.875 68.4591 149.676 78.1501C149.676 78.1501 138.891 78.4767 136.57 88.6455C136.89 88.9351 167.008 109.149 153.989 109.149L148.93 106.524L145.197 109.393C145.197 109.393 139.887 105.292 133.087 102.505C133.087 102.505 131.262 90.45 133.751 83.2319C133.751 83.2319 125.787 86.3483 121.308 99.4699C121.308 99.4699 102.729 92.2519 76.6848 102.421C76.6848 102.421 67.5618 133.419 107.706 161.96C108.35 105.225 212.648 105.225 213.294 161.96C253.438 133.421 244.313 102.421 244.313 102.421C218.268 92.2519 199.689 99.4699 199.689 99.4699C195.211 86.3483 187.246 83.2319 187.246 83.2319C189.735 90.45 187.91 102.505 187.91 102.505C181.108 105.292 175.801 109.393 175.801 109.393L172.068 106.524L167.008 109.149C153.989 109.149 184.107 88.9351 184.425 88.6455C182.102 78.4767 171.319 78.1501 171.319 78.1501C181.123 68.4591 199.564 75.7884 210.387 80.9394C210.387 80.9394 203.337 79.9546 194.878 84.1352C248.098 87.9472 293.643 91.1328 251.613 142.773C251.613 142.773 261.234 140.149 267.04 129.488H267.037Z" fill="white"/>
</g>
<g filter="url(#filter2_dddd_48_347)">
<path d="M391.438 212.296C392.334 212.296 393.11 212.448 393.766 212.752C394.438 213.056 395.086 213.512 395.71 214.12L394.918 214.96C394.358 214.448 393.806 214.08 393.262 213.856C392.734 213.616 392.134 213.496 391.462 213.496C390.566 213.496 389.838 213.752 389.278 214.264C388.718 214.776 388.438 215.448 388.438 216.28C388.438 217.112 388.686 217.776 389.182 218.272C389.678 218.752 390.574 219.216 391.87 219.664C393.342 220.176 394.422 220.784 395.11 221.488C395.798 222.192 396.142 223.2 396.142 224.512C396.142 225.408 395.934 226.224 395.518 226.96C395.118 227.68 394.542 228.248 393.79 228.664C393.038 229.064 392.174 229.264 391.198 229.264C389.342 229.264 387.75 228.576 386.422 227.2L387.214 226.384C387.822 226.944 388.43 227.368 389.038 227.656C389.646 227.928 390.358 228.064 391.174 228.064C392.23 228.064 393.086 227.752 393.742 227.128C394.398 226.488 394.726 225.632 394.726 224.56C394.726 223.904 394.614 223.36 394.39 222.928C394.182 222.496 393.83 222.12 393.334 221.8C392.838 221.464 392.142 221.136 391.246 220.816C389.742 220.288 388.662 219.688 388.006 219.016C387.35 218.328 387.022 217.432 387.022 216.328C387.022 215.576 387.206 214.896 387.574 214.288C387.958 213.664 388.486 213.176 389.158 212.824C389.83 212.472 390.59 212.296 391.438 212.296Z" fill="white"/>
<path d="M486.011 212.56L482.795 229H481.019L477.875 214.12L474.707 229H472.979L469.763 212.56H471.131L473.915 227.704L477.083 212.56H478.667L481.907 227.704L484.691 212.56H486.011Z" fill="white"/>
<path d="M569.252 229L567.956 224.488H561.788L560.492 229H559.124L564.044 212.56H565.772L570.692 229H569.252ZM562.124 223.312H567.62L564.884 213.712L562.124 223.312Z" fill="white"/>
<path d="M648.611 212.56C652.531 212.56 654.491 214.2 654.491 217.48C654.491 219.224 653.971 220.512 652.931 221.344C651.907 222.16 650.459 222.568 648.587 222.568H646.835V229H645.443V212.56H648.611ZM648.587 221.416C650.059 221.416 651.163 221.12 651.899 220.528C652.651 219.936 653.027 218.928 653.027 217.504C653.027 216.16 652.667 215.192 651.947 214.6C651.227 214.008 650.123 213.712 648.635 213.712H646.835V221.416H648.587Z" fill="white"/>
</g>
<defs>
<filter id="filter0_ddd_48_347" x="285.9" y="43.2598" width="470.699" height="229.74" filterUnits="userSpaceOnUse" color-interpolation-filters="sRGB">
<feFlood flood-opacity="0" result="BackgroundImageFix"/>
<feColorMatrix in="SourceAlpha" type="matrix" values="0 0 0 0 0 0 0 0 0 0 0 0 0 0 0 0 0 0 127 0" result="hardAlpha"/>
<feOffset dy="7"/>
<feGaussianBlur stdDeviation="7"/>
<feColorMatrix type="matrix" values="0 0 0 0 0 0 0 0 0 0 0 0 0 0 0 0 0 0 0.03 0"/>
<feBlend mode="normal" in2="BackgroundImageFix" result="effect1_dropShadow_48_347"/>
<feColorMatrix in="SourceAlpha" type="matrix" values="0 0 0 0 0 0 0 0 0 0 0 0 0 0 0 0 0 0 127 0" result="hardAlpha"/>
<feOffset dy="26"/>
<feGaussianBlur stdDeviation="13"/>
<feColorMatrix type="matrix" values="0 0 0 0 0 0 0 0 0 0 0 0 0 0 0 0 0 0 0.03 0"/>
<feBlend mode="normal" in2="effect1_dropShadow_48_347" result="effect2_dropShadow_48_347"/>
<feColorMatrix in="SourceAlpha" type="matrix" values="0 0 0 0 0 0 0 0 0 0 0 0 0 0 0 0 0 0 127 0" result="hardAlpha"/>
<feOffset dy="59"/>
<feGaussianBlur stdDeviation="17.5"/>
<feColorMatrix type="matrix" values="0 0 0 0 0 0 0 0 0 0 0 0 0 0 0 0 0 0 0.02 0"/>
<feBlend mode="normal" in2="effect2_dropShadow_48_347" result="effect3_dropShadow_48_347"/>
<feBlend mode="normal" in="SourceGraphic" in2="effect3_dropShadow_48_347" result="shape"/>
</filter>
<filter id="filter1_dddd_48_347" x="0" y="0" width="321" height="338" filterUnits="userSpaceOnUse" color-interpolation-filters="sRGB">
<feFlood flood-opacity="0" result="BackgroundImageFix"/>
<feColorMatrix in="SourceAlpha" type="matrix" values="0 0 0 0 0 0 0 0 0 0 0 0 0 0 0 0 0 0 127 0" result="hardAlpha"/>
<feOffset dy="5"/>
<feGaussianBlur stdDeviation="5.5"/>
<feColorMatrix type="matrix" values="0 0 0 0 0.0509804 0 0 0 0 0.0509804 0 0 0 0 0.0509804 0 0 0 0.05 0"/>
<feBlend mode="normal" in2="BackgroundImageFix" result="effect1_dropShadow_48_347"/>
<feColorMatrix in="SourceAlpha" type="matrix" values="0 0 0 0 0 0 0 0 0 0 0 0 0 0 0 0 0 0 127 0" result="hardAlpha"/>
<feOffset dy="20"/>
<feGaussianBlur stdDeviation="10"/>
<feColorMatrix type="matrix" values="0 0 0 0 0.0509804 0 0 0 0 0.0509804 0 0 0 0 0.0509804 0 0 0 0.04 0"/>
<feBlend mode="normal" in2="effect1_dropShadow_48_347" result="effect2_dropShadow_48_347"/>
<feColorMatrix in="SourceAlpha" type="matrix" values="0 0 0 0 0 0 0 0 0 0 0 0 0 0 0 0 0 0 127 0" result="hardAlpha"/>
<feOffset dy="44"/>
<feGaussianBlur stdDeviation="13"/>
<feColorMatrix type="matrix" values="0 0 0 0 0.0509804 0 0 0 0 0.0509804 0 0 0 0 0.0509804 0 0 0 0.02 0"/>
<feBlend mode="normal" in2="effect2_dropShadow_48_347" result="effect3_dropShadow_48_347"/>
<feColorMatrix in="SourceAlpha" type="matrix" values="0 0 0 0 0 0 0 0 0 0 0 0 0 0 0 0 0 0 127 0" result="hardAlpha"/>
<feOffset dy="78"/>
<feGaussianBlur stdDeviation="15.5"/>
<feColorMatrix type="matrix" values="0 0 0 0 0.0509804 0 0 0 0 0.0509804 0 0 0 0 0.0509804 0 0 0 0.01 0"/>
<feBlend mode="normal" in2="effect3_dropShadow_48_347" result="effect4_dropShadow_48_347"/>
<feBlend mode="normal" in="SourceGraphic" in2="effect4_dropShadow_48_347" result="shape"/>
</filter>
<filter id="filter2_dddd_48_347" x="360.422" y="207.296" width="320.068" height="112.968" filterUnits="userSpaceOnUse" color-interpolation-filters="sRGB">
<feFlood flood-opacity="0" result="BackgroundImageFix"/>
<feColorMatrix in="SourceAlpha" type="matrix" values="0 0 0 0 0 0 0 0 0 0 0 0 0 0 0 0 0 0 127 0" result="hardAlpha"/>
<feOffset dy="4"/>
<feGaussianBlur stdDeviation="4.5"/>
<feColorMatrix type="matrix" values="0 0 0 0 0.0588235 0 0 0 0 0.0588235 0 0 0 0 0.0588235 0 0 0 0.04 0"/>
<feBlend mode="normal" in2="BackgroundImageFix" result="effect1_dropShadow_48_347"/>
<feColorMatrix in="SourceAlpha" type="matrix" values="0 0 0 0 0 0 0 0 0 0 0 0 0 0 0 0 0 0 127 0" result="hardAlpha"/>
<feOffset dy="16"/>
<feGaussianBlur stdDeviation="8"/>
<feColorMatrix type="matrix" values="0 0 0 0 0.0588235 0 0 0 0 0.0588235 0 0 0 0 0.0588235 0 0 0 0.04 0"/>
<feBlend mode="normal" in2="effect1_dropShadow_48_347" result="effect2_dropShadow_48_347"/>
<feColorMatrix in="SourceAlpha" type="matrix" values="0 0 0 0 0 0 0 0 0 0 0 0 0 0 0 0 0 0 127 0" result="hardAlpha"/>
<feOffset dy="37"/>
<feGaussianBlur stdDeviation="11"/>
<feColorMatrix type="matrix" values="0 0 0 0 0.0588235 0 0 0 0 0.0588235 0 0 0 0 0.0588235 0 0 0 0.02 0"/>
<feBlend mode="normal" in2="effect2_dropShadow_48_347" result="effect3_dropShadow_48_347"/>
<feColorMatrix in="SourceAlpha" type="matrix" values="0 0 0 0 0 0 0 0 0 0 0 0 0 0 0 0 0 0 127 0" result="hardAlpha"/>
<feOffset dy="65"/>
<feGaussianBlur stdDeviation="13"/>
<feColorMatrix type="matrix" values="0 0 0 0 0.0588235 0 0 0 0 0.0588235 0 0 0 0 0.0588235 0 0 0 0.01 0"/>
<feBlend mode="normal" in2="effect3_dropShadow_48_347" result="effect4_dropShadow_48_347"/>
<feBlend mode="normal" in="SourceGraphic" in2="effect4_dropShadow_48_347" result="shape"/>
</filter>
</defs>
</svg>
