<svg width="731" height="469" viewBox="0 0 731 469" fill="none" xmlns="http://www.w3.org/2000/svg">
<g filter="url(#filter0_ddd_48_337)">
<path d="M357.56 105.94C365.48 107.62 371.84 110.74 376.64 115.3C381.56 119.86 384.02 126.64 384.02 135.64C384.02 159.88 367.28 172 333.8 172H296.9V47.2598H329.48C345.44 47.2598 357.74 49.8998 366.38 55.1798C375.02 60.3398 379.34 68.3198 379.34 79.1198C379.34 86.3198 377.3 92.1998 373.22 96.7598C369.14 101.2 363.92 104.26 357.56 105.94ZM325.7 67.5998V97.2998H333.62C344.66 97.2998 350.18 92.1998 350.18 81.9998C350.18 77.0798 348.74 73.4798 345.86 71.1998C342.98 68.7998 338.42 67.5998 332.18 67.5998H325.7ZM333.98 151.12C340.7 151.12 345.8 149.86 349.28 147.34C352.76 144.82 354.5 140.44 354.5 134.2C354.5 122.44 348.14 116.56 335.42 116.56H325.7V151.12H333.98Z" fill="#030D14"/>
<path d="M456.688 172L451.108 144.82H419.428L413.848 172H384.688L418.348 47.2598H452.908L486.388 172H456.688ZM423.748 124.12H446.788L435.268 68.3198L423.748 124.12Z" fill="#030D14"/>
<path d="M532.463 124.12H523.103V172H494.303V47.2598H530.843C547.163 47.2598 559.343 50.4398 567.383 56.7998C575.423 63.0398 579.443 72.4598 579.443 85.0598C579.443 101.02 572.423 112.24 558.383 118.72L586.643 172H555.143L532.463 124.12ZM523.103 104.14H531.923C538.163 104.14 542.723 102.64 545.603 99.6398C548.483 96.5198 549.923 91.6598 549.923 85.0598C549.923 79.0598 548.363 74.6798 545.243 71.9198C542.123 69.0398 537.203 67.5998 530.483 67.5998H523.103V104.14Z" fill="#030D14"/>
<path d="M624.177 47.2598V172H595.377V47.2598H624.177ZM689.337 47.2598L654.417 103.24L692.217 172H659.997L625.077 105.4L659.997 47.2598H689.337Z" fill="#030D14"/>
<path d="M295.9 172V173H296.9H333.8C350.631 173 363.435 169.959 372.052 163.72C380.729 157.437 385.02 148.017 385.02 135.64C385.02 126.463 382.509 119.378 377.325 114.571C373.103 110.561 367.738 107.654 361.266 105.824C366.267 103.987 370.504 101.194 373.957 97.4364L373.957 97.4365L373.966 97.4266C378.238 92.6516 380.34 86.5198 380.34 79.1198C380.34 68.0008 375.863 59.6798 366.897 54.3237C358.035 48.9093 345.525 46.2598 329.48 46.2598H296.9H295.9V47.2598V172ZM345.22 71.968L345.23 71.976L345.24 71.9838C347.805 74.0144 349.18 77.2741 349.18 81.9998C349.18 86.9244 347.852 90.44 345.362 92.7403C342.857 95.0544 339.005 96.2998 333.62 96.2998H326.7V68.5998H332.18C338.33 68.5998 342.606 69.7892 345.22 71.968ZM455.709 172.201L455.873 173H456.688H486.388H487.692L487.354 171.741L453.874 47.0005L453.675 46.2598H452.908H418.348H417.582L417.383 46.9992L383.723 171.739L383.383 173H384.688H413.848H414.664L414.828 172.201L420.244 145.82H450.293L455.709 172.201ZM587.526 171.531L559.756 119.175C566.452 115.91 571.559 111.516 575.025 105.975C578.654 100.176 580.443 93.1885 580.443 85.0598C580.443 72.2336 576.339 62.4863 567.999 56.012C559.704 49.4532 547.261 46.2598 530.843 46.2598H494.303H493.303V47.2598V172V173H494.303H523.103H524.103V172V125.12H531.83L554.239 172.428L554.51 173H555.143H586.643H588.305L587.526 171.531ZM544.564 72.6546L544.572 72.6617L544.58 72.6688C547.405 75.1675 548.923 79.2171 548.923 85.0598C548.923 91.537 547.507 96.0978 544.875 98.9542C542.259 101.673 538.021 103.14 531.923 103.14H524.103V68.5998H530.483C537.091 68.5998 541.711 70.0208 544.564 72.6546ZM625.177 47.2598V46.2598H624.177H595.377H594.377V47.2598V172V173H595.377H624.177H625.177V172V107.744L659.111 172.464L659.392 173H659.997H692.217H693.908L693.093 171.518L655.576 103.272L690.185 47.789L691.139 46.2598H689.337H659.997H659.431L659.14 46.7449L625.177 103.291V47.2598ZM348.694 146.53C345.456 148.874 340.6 150.12 333.98 150.12H326.7V117.56H335.42C341.645 117.56 346.127 119 349.052 121.704C351.961 124.394 353.5 128.495 353.5 134.2C353.5 140.272 351.811 144.273 348.694 146.53ZM435.268 73.2656L445.561 123.12H424.976L435.268 73.2656Z" stroke="white" stroke-width="2"/>
</g>
<g filter="url(#filter1_dddd_48_337)">
<path fill-rule="evenodd" clip-rule="evenodd" d="M160.919 101.896L161.399 110.262L152.419 106.611L160.921 101.896H160.919ZM182.867 57.6221C182.867 57.6221 195.808 75.0982 162.298 64.63C162.298 64.63 169.613 56.8773 182.867 57.6221ZM165.317 86.0662C176.018 98.3686 174.275 118.869 174.275 118.869C171.456 114.523 163.905 111.243 163.905 111.243C167.223 96.6456 165.317 86.0662 165.317 86.0662ZM190.033 102.015L177.843 118.253L177.137 101.48L190.033 102.012V102.015ZM189.006 108.711L191.97 131.521L178.776 121.166L189.003 108.711H189.006ZM206.869 107.51C205.542 126.206 192.436 139.001 192.436 139.001C197.581 121.038 193.763 102.589 193.763 102.589L206.866 107.51H206.869ZM108.081 101.894L107.603 110.26L116.583 106.609L108.081 101.894ZM86.1328 57.6201C86.1328 57.6201 73.1917 75.0956 106.702 64.6274C106.702 64.6274 99.3867 56.8747 86.1328 57.6201ZM103.685 86.0636C92.9848 98.366 94.7273 118.867 94.7273 118.867C97.546 114.52 105.095 111.24 105.095 111.24C101.777 96.6435 103.685 86.0636 103.685 86.0636ZM78.9675 102.012L91.1598 118.25L91.8658 101.478L78.9675 102.01V102.012ZM79.9941 108.708L77.0271 131.518L90.2209 121.164L79.9941 108.708ZM62.1309 107.507C63.4578 126.204 76.5639 138.999 76.5639 138.999C71.422 121.035 75.237 102.587 75.237 102.587L62.1309 107.507ZM134.502 44.4882C134.502 44.4882 172.402 2.49962 199.606 32.3519C217.669 -3.15638 233.935 66.2663 239.753 69.5831C213.328 63.2761 207.415 11.7077 158.302 45.4735C206.814 22.1708 207.875 65.1226 219.016 75.8159C219.016 75.8159 205.537 69.2145 190.941 72.0854C190.941 72.0854 194.509 62.4097 188.122 54.9466C188.122 54.9466 196.997 54.8651 201.143 60.6867C192.802 14.5939 151.931 81.8558 143.414 53.2237C143.414 53.2237 140.843 60.2761 142.915 65.197C142.915 65.197 136.454 59.7834 134.502 46.4168C132.549 59.7834 126.085 65.197 126.085 65.197C128.16 60.2761 125.586 53.2237 125.586 53.2237C117.069 81.8558 76.201 14.5939 67.8592 60.6867C72.0074 54.8651 80.8828 54.9466 80.8828 54.9466C74.4961 62.4097 78.0636 72.0854 78.0636 72.0854C63.4656 69.2166 49.9887 75.8159 49.9887 75.8159C61.1325 65.1226 62.1889 22.1708 110.702 45.4735C61.5878 11.7077 55.6747 63.2761 29.252 69.5831C35.0701 66.2638 51.3307 -3.15638 69.3986 32.3519C96.6051 2.49962 134.504 44.4882 134.504 44.4882H134.502ZM161.122 20.3765C161.122 20.3765 145.702 18.4085 134.502 29.7256C123.3 18.4085 107.881 20.3765 107.881 20.3765C117.377 10.8193 151.625 10.8193 161.122 20.3765ZM250.794 115.819C263.285 98.891 252.479 89.544 246.28 85.9252C254.935 85.7617 261.663 81.2345 264 73.024C235.798 70.6448 245.236 -12.8079 197.473 16.505C194.158 3.51669 172.943 10.2149 169.674 11.3314C151.07 -2.44381 117.92 -2.44381 99.3188 11.3314C96.0516 10.2149 74.8365 3.51669 71.5197 16.505C23.7618 -12.8028 33.2002 70.6499 5 73.0291C7.3357 81.2391 14.0655 85.7668 22.7175 85.9298C16.5239 89.5491 5.7159 98.8956 18.2038 115.825C-54.7272 260.058 323.728 260.058 250.794 115.825V115.819ZM241.037 124.488C241.037 124.488 249.832 161.556 215.328 185.173C215.328 185.173 222.461 164.016 211.511 147.942C211.511 147.942 217.979 177.462 179.162 205.676C179.162 205.676 192.103 193.537 190.773 173.856C181.025 222.859 87.9703 222.859 78.2213 173.856C76.8944 193.537 89.8329 205.676 89.8329 205.676C51.0127 177.462 57.4846 147.942 57.4846 147.942C46.5361 164.016 53.669 185.173 53.669 185.173C19.1651 161.553 27.9601 124.488 27.9601 124.488C33.7657 135.149 43.3868 137.773 43.3868 137.773C1.35468 86.1328 46.8995 82.9472 100.12 79.1352C91.6606 74.952 84.6106 75.9394 84.6106 75.9394C95.4333 70.7884 113.875 63.4591 123.676 73.1501C123.676 73.1501 112.891 73.4767 110.57 83.6455C110.89 83.9351 141.008 104.149 127.989 104.149L122.93 101.524L119.197 104.393C119.197 104.393 113.887 100.292 107.087 97.5048C107.087 97.5048 105.262 85.45 107.751 78.2319C107.751 78.2319 99.7867 81.3483 95.308 94.4699C95.308 94.4699 76.7294 87.2519 50.6848 97.4207C50.6848 97.4207 41.5618 128.419 81.7063 156.96C82.3496 100.225 186.648 100.225 187.294 156.96C227.438 128.421 218.313 97.4207 218.313 97.4207C192.268 87.2519 173.689 94.4699 173.689 94.4699C169.211 81.3483 161.246 78.2319 161.246 78.2319C163.735 85.45 161.91 97.5048 161.91 97.5048C155.108 100.292 149.801 104.393 149.801 104.393L146.068 101.524L141.008 104.149C127.989 104.149 158.107 83.9351 158.425 83.6455C156.102 73.4767 145.319 73.1501 145.319 73.1501C155.123 63.4591 173.564 70.7884 184.387 75.9394C184.387 75.9394 177.337 74.9546 168.878 79.1352C222.098 82.9472 267.643 86.1328 225.613 137.773C225.613 137.773 235.234 135.149 241.04 124.488H241.037Z" fill="#030D14"/>
<mask id="mask0_48_337" style="mask-type:luminance" maskUnits="userSpaceOnUse" x="5" y="1" width="259" height="223">
<path fill-rule="evenodd" clip-rule="evenodd" d="M160.919 101.896L161.399 110.262L152.419 106.611L160.921 101.896H160.919ZM182.867 57.6221C182.867 57.6221 195.808 75.0982 162.298 64.63C162.298 64.63 169.613 56.8773 182.867 57.6221ZM165.317 86.0662C176.018 98.3686 174.275 118.869 174.275 118.869C171.456 114.523 163.905 111.243 163.905 111.243C167.223 96.6456 165.317 86.0662 165.317 86.0662ZM190.033 102.015L177.843 118.253L177.137 101.48L190.033 102.012V102.015ZM189.006 108.711L191.97 131.521L178.776 121.166L189.003 108.711H189.006ZM206.869 107.51C205.542 126.206 192.436 139.001 192.436 139.001C197.581 121.038 193.763 102.589 193.763 102.589L206.866 107.51H206.869ZM108.081 101.894L107.603 110.26L116.583 106.609L108.081 101.894ZM86.1328 57.6201C86.1328 57.6201 73.1917 75.0956 106.702 64.6274C106.702 64.6274 99.3867 56.8747 86.1328 57.6201ZM103.685 86.0636C92.9848 98.366 94.7273 118.867 94.7273 118.867C97.546 114.52 105.095 111.24 105.095 111.24C101.777 96.6435 103.685 86.0636 103.685 86.0636ZM78.9675 102.012L91.1598 118.25L91.8658 101.478L78.9675 102.01V102.012ZM79.9941 108.708L77.0271 131.518L90.2209 121.164L79.9941 108.708ZM62.1309 107.507C63.4578 126.204 76.5639 138.999 76.5639 138.999C71.422 121.035 75.237 102.587 75.237 102.587L62.1309 107.507ZM134.502 44.4882C134.502 44.4882 172.402 2.49962 199.606 32.3519C217.669 -3.15638 233.935 66.2663 239.753 69.5831C213.328 63.2761 207.415 11.7077 158.302 45.4735C206.814 22.1708 207.875 65.1226 219.016 75.8159C219.016 75.8159 205.537 69.2145 190.941 72.0854C190.941 72.0854 194.509 62.4097 188.122 54.9466C188.122 54.9466 196.997 54.8651 201.143 60.6867C192.802 14.5939 151.931 81.8558 143.414 53.2237C143.414 53.2237 140.843 60.2761 142.915 65.197C142.915 65.197 136.454 59.7834 134.502 46.4168C132.549 59.7834 126.085 65.197 126.085 65.197C128.16 60.2761 125.586 53.2237 125.586 53.2237C117.069 81.8558 76.201 14.5939 67.8592 60.6867C72.0074 54.8651 80.8828 54.9466 80.8828 54.9466C74.4961 62.4097 78.0636 72.0854 78.0636 72.0854C63.4656 69.2166 49.9887 75.8159 49.9887 75.8159C61.1325 65.1226 62.1889 22.1708 110.702 45.4735C61.5878 11.7077 55.6747 63.2761 29.252 69.5831C35.0701 66.2638 51.3307 -3.15638 69.3986 32.3519C96.6051 2.49962 134.504 44.4882 134.504 44.4882H134.502ZM161.122 20.3765C161.122 20.3765 145.702 18.4085 134.502 29.7256C123.3 18.4085 107.881 20.3765 107.881 20.3765C117.377 10.8193 151.625 10.8193 161.122 20.3765ZM250.794 115.819C263.285 98.891 252.479 89.544 246.28 85.9252C254.935 85.7617 261.663 81.2345 264 73.024C235.798 70.6448 245.236 -12.8079 197.473 16.505C194.158 3.51669 172.943 10.2149 169.674 11.3314C151.07 -2.44381 117.92 -2.44381 99.3188 11.3314C96.0516 10.2149 74.8365 3.51669 71.5197 16.505C23.7618 -12.8028 33.2002 70.6499 5 73.0291C7.3357 81.2391 14.0655 85.7668 22.7175 85.9298C16.5239 89.5491 5.7159 98.8956 18.2038 115.825C-54.7272 260.058 323.728 260.058 250.794 115.825V115.819ZM241.037 124.488C241.037 124.488 249.832 161.556 215.328 185.173C215.328 185.173 222.461 164.016 211.511 147.942C211.511 147.942 217.979 177.462 179.162 205.676C179.162 205.676 192.103 193.537 190.773 173.856C181.025 222.859 87.9703 222.859 78.2213 173.856C76.8944 193.537 89.8329 205.676 89.8329 205.676C51.0127 177.462 57.4846 147.942 57.4846 147.942C46.5361 164.016 53.669 185.173 53.669 185.173C19.1651 161.553 27.9601 124.488 27.9601 124.488C33.7657 135.149 43.3868 137.773 43.3868 137.773C1.35468 86.1328 46.8995 82.9472 100.12 79.1352C91.6606 74.952 84.6106 75.9394 84.6106 75.9394C95.4333 70.7884 113.875 63.4591 123.676 73.1501C123.676 73.1501 112.891 73.4767 110.57 83.6455C110.89 83.9351 141.008 104.149 127.989 104.149L122.93 101.524L119.197 104.393C119.197 104.393 113.887 100.292 107.087 97.5048C107.087 97.5048 105.262 85.45 107.751 78.2319C107.751 78.2319 99.7867 81.3483 95.308 94.4699C95.308 94.4699 76.7294 87.2519 50.6848 97.4207C50.6848 97.4207 41.5618 128.419 81.7063 156.96C82.3496 100.225 186.648 100.225 187.294 156.96C227.438 128.421 218.313 97.4207 218.313 97.4207C192.268 87.2519 173.689 94.4699 173.689 94.4699C169.211 81.3483 161.246 78.2319 161.246 78.2319C163.735 85.45 161.91 97.5048 161.91 97.5048C155.108 100.292 149.801 104.393 149.801 104.393L146.068 101.524L141.008 104.149C127.989 104.149 158.107 83.9351 158.425 83.6455C156.102 73.4767 145.319 73.1501 145.319 73.1501C155.123 63.4591 173.564 70.7884 184.387 75.9394C184.387 75.9394 177.337 74.9546 168.878 79.1352C222.098 82.9472 267.643 86.1328 225.613 137.773C225.613 137.773 235.234 135.149 241.04 124.488H241.037Z" fill="white"/>
</mask>
<g mask="url(#mask0_48_337)">
<path fill-rule="evenodd" clip-rule="evenodd" d="M160.919 101.896L161.399 110.262L152.419 106.611L160.921 101.896H160.919ZM182.867 57.6221C182.867 57.6221 195.808 75.0982 162.298 64.63C162.298 64.63 169.613 56.8773 182.867 57.6221ZM165.317 86.0662C176.018 98.3686 174.275 118.869 174.275 118.869C171.456 114.523 163.905 111.243 163.905 111.243C167.223 96.6456 165.317 86.0662 165.317 86.0662ZM190.033 102.015L177.843 118.253L177.137 101.48L190.033 102.012V102.015ZM189.006 108.711L191.97 131.521L178.776 121.166L189.003 108.711H189.006ZM206.869 107.51C205.542 126.206 192.436 139.001 192.436 139.001C197.581 121.038 193.763 102.589 193.763 102.589L206.866 107.51H206.869ZM108.081 101.894L107.603 110.26L116.583 106.609L108.081 101.894ZM86.1328 57.6201C86.1328 57.6201 73.1917 75.0956 106.702 64.6274C106.702 64.6274 99.3867 56.8747 86.1328 57.6201ZM103.685 86.0636C92.9848 98.366 94.7273 118.867 94.7273 118.867C97.546 114.52 105.095 111.24 105.095 111.24C101.777 96.6435 103.685 86.0636 103.685 86.0636ZM78.9675 102.012L91.1598 118.25L91.8658 101.478L78.9675 102.01V102.012ZM79.9941 108.708L77.0271 131.518L90.2209 121.164L79.9941 108.708ZM62.1309 107.507C63.4578 126.204 76.5639 138.999 76.5639 138.999C71.422 121.035 75.237 102.587 75.237 102.587L62.1309 107.507ZM134.502 44.4882C134.502 44.4882 172.402 2.49962 199.606 32.3519C217.669 -3.15638 233.935 66.2663 239.753 69.5831C213.328 63.2761 207.415 11.7077 158.302 45.4735C206.814 22.1708 207.875 65.1226 219.016 75.8159C219.016 75.8159 205.537 69.2145 190.941 72.0854C190.941 72.0854 194.509 62.4097 188.122 54.9466C188.122 54.9466 196.997 54.8651 201.143 60.6867C192.802 14.5939 151.931 81.8558 143.414 53.2237C143.414 53.2237 140.843 60.2761 142.915 65.197C142.915 65.197 136.454 59.7834 134.502 46.4168C132.549 59.7834 126.085 65.197 126.085 65.197C128.16 60.2761 125.586 53.2237 125.586 53.2237C117.069 81.8558 76.201 14.5939 67.8592 60.6867C72.0074 54.8651 80.8828 54.9466 80.8828 54.9466C74.4961 62.4097 78.0636 72.0854 78.0636 72.0854C63.4656 69.2166 49.9887 75.8159 49.9887 75.8159C61.1325 65.1226 62.1889 22.1708 110.702 45.4735C61.5878 11.7077 55.6747 63.2761 29.252 69.5831C35.0701 66.2638 51.3307 -3.15638 69.3986 32.3519C96.6051 2.49962 134.504 44.4882 134.504 44.4882H134.502ZM161.122 20.3765C161.122 20.3765 145.702 18.4085 134.502 29.7256C123.3 18.4085 107.881 20.3765 107.881 20.3765C117.377 10.8193 151.625 10.8193 161.122 20.3765ZM250.794 115.819C263.285 98.891 252.479 89.5439 246.28 85.9252C254.935 85.7617 261.663 81.2345 264 73.024C235.798 70.6448 245.236 -12.8079 197.473 16.505C194.158 3.51669 172.943 10.2149 169.674 11.3314C151.07 -2.44381 117.92 -2.44381 99.3188 11.3314C96.0516 10.2149 74.8365 3.51669 71.5197 16.505C23.7618 -12.8028 33.2002 70.65 5 73.0291C7.3357 81.2391 14.0655 85.7668 22.7175 85.9298C16.5239 89.5491 5.7159 98.8956 18.2038 115.825C-54.7272 260.058 323.728 260.058 250.794 115.825V115.819ZM241.037 124.488C241.037 124.488 249.832 161.556 215.328 185.173C215.328 185.173 222.461 164.016 211.511 147.942C211.511 147.942 217.979 177.462 179.162 205.676C179.162 205.676 192.103 193.537 190.774 173.856C181.025 222.859 87.9703 222.859 78.2213 173.856C76.8944 193.537 89.8329 205.676 89.8329 205.676C51.0127 177.462 57.4846 147.942 57.4846 147.942C46.5361 164.016 53.669 185.173 53.669 185.173C19.1651 161.553 27.9601 124.488 27.9601 124.488C33.7657 135.149 43.3868 137.773 43.3868 137.773C1.35468 86.1328 46.8995 82.9472 100.12 79.1352C91.6606 74.952 84.6107 75.9394 84.6107 75.9394C95.4333 70.7884 113.875 63.4591 123.676 73.1501C123.676 73.1501 112.891 73.4767 110.57 83.6455C110.89 83.9351 141.008 104.149 127.989 104.149L122.93 101.524L119.197 104.393C119.197 104.393 113.887 100.292 107.087 97.5048C107.087 97.5048 105.262 85.45 107.751 78.2319C107.751 78.2319 99.7867 81.3483 95.308 94.4699C95.308 94.4699 76.7294 87.2519 50.6848 97.4207C50.6848 97.4207 41.5618 128.419 81.7063 156.96C82.3496 100.225 186.648 100.225 187.294 156.96C227.438 128.421 218.313 97.4207 218.313 97.4207C192.268 87.2519 173.689 94.4699 173.689 94.4699C169.211 81.3483 161.246 78.2319 161.246 78.2319C163.735 85.45 161.91 97.5048 161.91 97.5048C155.108 100.292 149.801 104.393 149.801 104.393L146.068 101.524L141.008 104.149C127.989 104.149 158.107 83.9351 158.425 83.6455C156.102 73.4767 145.319 73.1501 145.319 73.1501C155.123 63.4591 173.564 70.7884 184.387 75.9394C184.387 75.9394 177.337 74.9546 168.878 79.1352C222.098 82.9472 267.643 86.1328 225.613 137.773C225.613 137.773 235.234 135.149 241.04 124.488H241.037Z" stroke="url(#paint0_linear_48_337)" stroke-width="2"/>
</g>
</g>
<g filter="url(#filter2_dddd_48_337)">
<path d="M365.438 207.296C366.334 207.296 367.11 207.448 367.766 207.752C368.438 208.056 369.086 208.512 369.71 209.12L368.918 209.96C368.358 209.448 367.806 209.08 367.262 208.856C366.734 208.616 366.134 208.496 365.462 208.496C364.566 208.496 363.838 208.752 363.278 209.264C362.718 209.776 362.438 210.448 362.438 211.28C362.438 212.112 362.686 212.776 363.182 213.272C363.678 213.752 364.574 214.216 365.87 214.664C367.342 215.176 368.422 215.784 369.11 216.488C369.798 217.192 370.142 218.2 370.142 219.512C370.142 220.408 369.934 221.224 369.518 221.96C369.118 222.68 368.542 223.248 367.79 223.664C367.038 224.064 366.174 224.264 365.198 224.264C363.342 224.264 361.75 223.576 360.422 222.2L361.214 221.384C361.822 221.944 362.43 222.368 363.038 222.656C363.646 222.928 364.358 223.064 365.174 223.064C366.23 223.064 367.086 222.752 367.742 222.128C368.398 221.488 368.726 220.632 368.726 219.56C368.726 218.904 368.614 218.36 368.39 217.928C368.182 217.496 367.83 217.12 367.334 216.8C366.838 216.464 366.142 216.136 365.246 215.816C363.742 215.288 362.662 214.688 362.006 214.016C361.35 213.328 361.022 212.432 361.022 211.328C361.022 210.576 361.206 209.896 361.574 209.288C361.958 208.664 362.486 208.176 363.158 207.824C363.83 207.472 364.59 207.296 365.438 207.296Z" fill="#5A6974"/>
<path d="M460.011 207.56L456.795 224H455.019L451.875 209.12L448.707 224H446.979L443.763 207.56H445.131L447.915 222.704L451.083 207.56H452.667L455.907 222.704L458.691 207.56H460.011Z" fill="#5A6974"/>
<path d="M543.252 224L541.956 219.488H535.788L534.492 224H533.124L538.044 207.56H539.772L544.692 224H543.252ZM536.124 218.312H541.62L538.884 208.712L536.124 218.312Z" fill="#5A6974"/>
<path d="M622.611 207.56C626.531 207.56 628.491 209.2 628.491 212.48C628.491 214.224 627.971 215.512 626.931 216.344C625.907 217.16 624.459 217.568 622.587 217.568H620.835V224H619.443V207.56H622.611ZM622.587 216.416C624.059 216.416 625.163 216.12 625.899 215.528C626.651 214.936 627.027 213.928 627.027 212.504C627.027 211.16 626.667 210.192 625.947 209.6C625.227 209.008 624.123 208.712 622.635 208.712H620.835V216.416H622.587Z" fill="#5A6974"/>
</g>
<defs>
<filter id="filter0_ddd_48_337" x="259.9" y="38.2598" width="470.699" height="229.74" filterUnits="userSpaceOnUse" color-interpolation-filters="sRGB">
<feFlood flood-opacity="0" result="BackgroundImageFix"/>
<feColorMatrix in="SourceAlpha" type="matrix" values="0 0 0 0 0 0 0 0 0 0 0 0 0 0 0 0 0 0 127 0" result="hardAlpha"/>
<feOffset dy="7"/>
<feGaussianBlur stdDeviation="7"/>
<feColorMatrix type="matrix" values="0 0 0 0 0 0 0 0 0 0 0 0 0 0 0 0 0 0 0.03 0"/>
<feBlend mode="normal" in2="BackgroundImageFix" result="effect1_dropShadow_48_337"/>
<feColorMatrix in="SourceAlpha" type="matrix" values="0 0 0 0 0 0 0 0 0 0 0 0 0 0 0 0 0 0 127 0" result="hardAlpha"/>
<feOffset dy="26"/>
<feGaussianBlur stdDeviation="13"/>
<feColorMatrix type="matrix" values="0 0 0 0 0 0 0 0 0 0 0 0 0 0 0 0 0 0 0.03 0"/>
<feBlend mode="normal" in2="effect1_dropShadow_48_337" result="effect2_dropShadow_48_337"/>
<feColorMatrix in="SourceAlpha" type="matrix" values="0 0 0 0 0 0 0 0 0 0 0 0 0 0 0 0 0 0 127 0" result="hardAlpha"/>
<feOffset dy="59"/>
<feGaussianBlur stdDeviation="17.5"/>
<feColorMatrix type="matrix" values="0 0 0 0 0 0 0 0 0 0 0 0 0 0 0 0 0 0 0.02 0"/>
<feBlend mode="normal" in2="effect2_dropShadow_48_337" result="effect3_dropShadow_48_337"/>
<feBlend mode="normal" in="SourceGraphic" in2="effect3_dropShadow_48_337" result="shape"/>
</filter>
<filter id="filter1_dddd_48_337" x="0" y="0" width="269" height="241" filterUnits="userSpaceOnUse" color-interpolation-filters="sRGB">
<feFlood flood-opacity="0" result="BackgroundImageFix"/>
<feColorMatrix in="SourceAlpha" type="matrix" values="0 0 0 0 0 0 0 0 0 0 0 0 0 0 0 0 0 0 127 0" result="hardAlpha"/>
<feOffset dy="1"/>
<feGaussianBlur stdDeviation="1"/>
<feColorMatrix type="matrix" values="0 0 0 0 0 0 0 0 0 0 0 0 0 0 0 0 0 0 0.08 0"/>
<feBlend mode="normal" in2="BackgroundImageFix" result="effect1_dropShadow_48_337"/>
<feColorMatrix in="SourceAlpha" type="matrix" values="0 0 0 0 0 0 0 0 0 0 0 0 0 0 0 0 0 0 127 0" result="hardAlpha"/>
<feOffset dy="3"/>
<feGaussianBlur stdDeviation="1.5"/>
<feColorMatrix type="matrix" values="0 0 0 0 0 0 0 0 0 0 0 0 0 0 0 0 0 0 0.07 0"/>
<feBlend mode="normal" in2="effect1_dropShadow_48_337" result="effect2_dropShadow_48_337"/>
<feColorMatrix in="SourceAlpha" type="matrix" values="0 0 0 0 0 0 0 0 0 0 0 0 0 0 0 0 0 0 127 0" result="hardAlpha"/>
<feOffset dy="7"/>
<feGaussianBlur stdDeviation="2"/>
<feColorMatrix type="matrix" values="0 0 0 0 0 0 0 0 0 0 0 0 0 0 0 0 0 0 0.04 0"/>
<feBlend mode="normal" in2="effect2_dropShadow_48_337" result="effect3_dropShadow_48_337"/>
<feColorMatrix in="SourceAlpha" type="matrix" values="0 0 0 0 0 0 0 0 0 0 0 0 0 0 0 0 0 0 127 0" result="hardAlpha"/>
<feOffset dy="12"/>
<feGaussianBlur stdDeviation="2.5"/>
<feColorMatrix type="matrix" values="0 0 0 0 0 0 0 0 0 0 0 0 0 0 0 0 0 0 0.01 0"/>
<feBlend mode="normal" in2="effect3_dropShadow_48_337" result="effect4_dropShadow_48_337"/>
<feBlend mode="normal" in="SourceGraphic" in2="effect4_dropShadow_48_337" result="shape"/>
</filter>
<filter id="filter2_dddd_48_337" x="290.422" y="194.296" width="408.068" height="273.968" filterUnits="userSpaceOnUse" color-interpolation-filters="sRGB">
<feFlood flood-opacity="0" result="BackgroundImageFix"/>
<feColorMatrix in="SourceAlpha" type="matrix" values="0 0 0 0 0 0 0 0 0 0 0 0 0 0 0 0 0 0 127 0" result="hardAlpha"/>
<feOffset dy="11"/>
<feGaussianBlur stdDeviation="12"/>
<feColorMatrix type="matrix" values="0 0 0 0 0 0 0 0 0 0 0 0 0 0 0 0 0 0 0.1 0"/>
<feBlend mode="normal" in2="BackgroundImageFix" result="effect1_dropShadow_48_337"/>
<feColorMatrix in="SourceAlpha" type="matrix" values="0 0 0 0 0 0 0 0 0 0 0 0 0 0 0 0 0 0 127 0" result="hardAlpha"/>
<feOffset dy="43"/>
<feGaussianBlur stdDeviation="21.5"/>
<feColorMatrix type="matrix" values="0 0 0 0 0 0 0 0 0 0 0 0 0 0 0 0 0 0 0.09 0"/>
<feBlend mode="normal" in2="effect1_dropShadow_48_337" result="effect2_dropShadow_48_337"/>
<feColorMatrix in="SourceAlpha" type="matrix" values="0 0 0 0 0 0 0 0 0 0 0 0 0 0 0 0 0 0 127 0" result="hardAlpha"/>
<feOffset dy="98"/>
<feGaussianBlur stdDeviation="29.5"/>
<feColorMatrix type="matrix" values="0 0 0 0 0 0 0 0 0 0 0 0 0 0 0 0 0 0 0.05 0"/>
<feBlend mode="normal" in2="effect2_dropShadow_48_337" result="effect3_dropShadow_48_337"/>
<feColorMatrix in="SourceAlpha" type="matrix" values="0 0 0 0 0 0 0 0 0 0 0 0 0 0 0 0 0 0 127 0" result="hardAlpha"/>
<feOffset dy="174"/>
<feGaussianBlur stdDeviation="35"/>
<feColorMatrix type="matrix" values="0 0 0 0 0 0 0 0 0 0 0 0 0 0 0 0 0 0 0.01 0"/>
<feBlend mode="normal" in2="effect3_dropShadow_48_337" result="effect4_dropShadow_48_337"/>
<feBlend mode="normal" in="SourceGraphic" in2="effect4_dropShadow_48_337" result="shape"/>
</filter>
<linearGradient id="paint0_linear_48_337" x1="134.5" y1="1" x2="134.5" y2="224" gradientUnits="userSpaceOnUse">
<stop stop-color="#FAFAFA"/>
<stop offset="1" stop-color="#949494"/>
</linearGradient>
</defs>
</svg>
